  0
SECTION
  2
HEADER
  9
$ACADVER
  1
AC1015
  9
$ACADMAINTVER
 70
     6
  9
$DWGCODEPAGE
  3
ANSI_936
  9
$INSBASE
 10
0.0
 20
0.0
 30
0.0
  9
$EXTMIN
 10
1.0788822856
 20
-6.2837160567
 30
0.0
  9
$EXTMAX
 10
267.9130528585
 20
28.425883181
 30
0.0
  9
$LIMMIN
 10
0.0
 20
0.0
  9
$LIMMAX
 10
420.0
 20
297.0
  9
$ORTHOMODE
 70
     0
  9
$REGENMODE
 70
     1
  9
$FILLMODE
 70
     1
  9
$QTEXTMODE
 70
     0
  9
$MIRRTEXT
 70
     1
  9
$LTSCALE
 40
1.0
  9
$ATTMODE
 70
     1
  9
$TEXTSIZE
 40
3.5
  9
$TRACEWID
 40
1.0
  9
$TEXTSTYLE
  7
Standard
  9
$CLAYER
  8
0
  9
$CELTYPE
  6
ByLayer
  9
$CECOLOR
 62
   256
  9
$CELTSCALE
 40
1.0
  9
$DISPSILH
 70
     0
  9
$DIMSCALE
 40
1.0
  9
$DIMASZ
 40
4.08
  9
$DIMEXO
 40
0.0
  9
$DIMDLI
 40
3.75
  9
$DIMRND
 40
0.0
  9
$DIMDLE
 40
0.0
  9
$DIMEXE
 40
2.0
  9
$DIMTP
 40
0.0
  9
$DIMTM
 40
0.0
  9
$DIMTXT
 40
3.5
  9
$DIMCEN
 40
2.5
  9
$DIMTSZ
 40
0.0
  9
$DIMTOL
 70
     0
  9
$DIMLIM
 70
     0
  9
$DIMTIH
 70
     1
  9
$DIMTOH
 70
     1
  9
$DIMSE1
 70
     0
  9
$DIMSE2
 70
     0
  9
$DIMTAD
 70
     1
  9
$DIMZIN
 70
     0
  9
$DIMBLK
  1

  9
$DIMASO
 70
     1
  9
$DIMSHO
 70
     1
  9
$DIMPOST
  1

  9
$DIMAPOST
  1

  9
$DIMALT
 70
     0
  9
$DIMALTD
 70
     3
  9
$DIMALTF
 40
0.0393700787
  9
$DIMLFAC
 40
1.0
  9
$DIMTOFL
 70
     1
  9
$DIMTVP
 40
0.0
  9
$DIMTIX
 70
     0
  9
$DIMSOXD
 70
     0
  9
$DIMSAH
 70
     0
  9
$DIMBLK1
  1

  9
$DIMBLK2
  1

  9
$DIMSTYLE
  2
ISO-25
  9
$DIMCLRD
 70
     0
  9
$DIMCLRE
 70
     0
  9
$DIMCLRT
 70
     0
  9
$DIMTFAC
 40
1.0
  9
$DIMGAP
 40
1.524
  9
$DIMJUST
 70
     0
  9
$DIMSD1
 70
     0
  9
$DIMSD2
 70
     0
  9
$DIMTOLJ
 70
     0
  9
$DIMTZIN
 70
     0
  9
$DIMALTZ
 70
     0
  9
$DIMALTTZ
 70
     0
  9
$DIMUPT
 70
     0
  9
$DIMDEC
 70
     2
  9
$DIMTDEC
 70
     2
  9
$DIMALTU
 70
     2
  9
$DIMALTTD
 70
     3
  9
$DIMTXSTY
  7
Standard
  9
$DIMAUNIT
 70
     0
  9
$DIMADEC
 70
     2
  9
$DIMALTRND
 40
0.0
  9
$DIMAZIN
 70
     0
  9
$DIMDSEP
 70
    44
  9
$DIMATFIT
 70
     3
  9
$DIMFRAC
 70
     0
  9
$DIMLDRBLK
  1

  9
$DIMLUNIT
 70
     2
  9
$DIMLWD
 70
    -2
  9
$DIMLWE
 70
    -2
  9
$DIMTMOVE
 70
     0
  9
$LUNITS
 70
     2
  9
$LUPREC
 70
     2
  9
$SKETCHINC
 40
1.0
  9
$FILLETRAD
 40
0.0
  9
$AUNITS
 70
     0
  9
$AUPREC
 70
     2
  9
$MENU
  1
.
  9
$ELEVATION
 40
0.0
  9
$PELEVATION
 40
0.0
  9
$THICKNESS
 40
0.0
  9
$LIMCHECK
 70
     0
  9
$CHAMFERA
 40
0.0
  9
$CHAMFERB
 40
0.0
  9
$CHAMFERC
 40
0.0
  9
$CHAMFERD
 40
0.0
  9
$SKPOLY
 70
     0
  9
$TDCREATE
 40
2460780.509914005
  9
$TDUCREATE
 40
2460780.176580671
  9
$TDUPDATE
 40
2460780.509926678
  9
$TDUUPDATE
 40
2460780.176593345
  9
$TDINDWG
 40
0.0000000116
  9
$TDUSRTIMER
 40
0.0000000116
  9
$USRTIMER
 70
     1
  9
$ANGBASE
 50
0.0
  9
$ANGDIR
 70
     0
  9
$PDMODE
 70
     0
  9
$PDSIZE
 40
-1.0
  9
$PLINEWID
 40
0.0
  9
$SPLFRAME
 70
     0
  9
$SPLINETYPE
 70
     6
  9
$SPLINESEGS
 70
     8
  9
$HANDSEED
  5
90
  9
$SURFTAB1
 70
     6
  9
$SURFTAB2
 70
     6
  9
$SURFTYPE
 70
     6
  9
$SURFU
 70
     6
  9
$SURFV
 70
     6
  9
$UCSBASE
  2

  9
$UCSNAME
  2

  9
$UCSORG
 10
0.0
 20
0.0
 30
0.0
  9
$UCSXDIR
 10
1.0
 20
0.0
 30
0.0
  9
$UCSYDIR
 10
0.0
 20
1.0
 30
0.0
  9
$UCSORTHOREF
  2

  9
$UCSORTHOVIEW
 70
     0
  9
$UCSORGTOP
 10
0.0
 20
0.0
 30
0.0
  9
$UCSORGBOTTOM
 10
0.0
 20
0.0
 30
0.0
  9
$UCSORGLEFT
 10
0.0
 20
0.0
 30
0.0
  9
$UCSORGRIGHT
 10
0.0
 20
0.0
 30
0.0
  9
$UCSORGFRONT
 10
0.0
 20
0.0
 30
0.0
  9
$UCSORGBACK
 10
0.0
 20
0.0
 30
0.0
  9
$PUCSBASE
  2

  9
$PUCSNAME
  2

  9
$PUCSORG
 10
0.0
 20
0.0
 30
0.0
  9
$PUCSXDIR
 10
1.0
 20
0.0
 30
0.0
  9
$PUCSYDIR
 10
0.0
 20
1.0
 30
0.0
  9
$PUCSORTHOREF
  2

  9
$PUCSORTHOVIEW
 70
     0
  9
$PUCSORGTOP
 10
0.0
 20
0.0
 30
0.0
  9
$PUCSORGBOTTOM
 10
0.0
 20
0.0
 30
0.0
  9
$PUCSORGLEFT
 10
0.0
 20
0.0
 30
0.0
  9
$PUCSORGRIGHT
 10
0.0
 20
0.0
 30
0.0
  9
$PUCSORGFRONT
 10
0.0
 20
0.0
 30
0.0
  9
$PUCSORGBACK
 10
0.0
 20
0.0
 30
0.0
  9
$USERI1
 70
     0
  9
$USERI2
 70
     0
  9
$USERI3
 70
     0
  9
$USERI4
 70
     0
  9
$USERI5
 70
     0
  9
$USERR1
 40
0.0
  9
$USERR2
 40
0.0
  9
$USERR3
 40
0.0
  9
$USERR4
 40
0.0
  9
$USERR5
 40
0.0
  9
$WORLDVIEW
 70
     1
  9
$SHADEDGE
 70
     3
  9
$SHADEDIF
 70
    70
  9
$TILEMODE
 70
     1
  9
$MAXACTVP
 70
    64
  9
$PINSBASE
 10
0.0
 20
0.0
 30
0.0
  9
$PLIMCHECK
 70
     0
  9
$PEXTMIN
 10
1.0000000000E+20
 20
1.0000000000E+20
 30
1.0000000000E+20
  9
$PEXTMAX
 10
-1.0000000000E+20
 20
-1.0000000000E+20
 30
-1.0000000000E+20
  9
$PLIMMIN
 10
0.0
 20
0.0
  9
$PLIMMAX
 10
420.0
 20
297.0
  9
$UNITMODE
 70
     0
  9
$VISRETAIN
 70
     1
  9
$PLINEGEN
 70
     0
  9
$PSLTSCALE
 70
     1
  9
$TREEDEPTH
 70
  3020
  9
$CMLSTYLE
  2
Standard
  9
$CMLJUST
 70
     0
  9
$CMLSCALE
 40
20.0
  9
$PROXYGRAPHICS
 70
     1
  9
$MEASUREMENT
 70
     1
  9
$CELWEIGHT
370
    -1
  9
$ENDCAPS
280
     0
  9
$JOINSTYLE
280
     0
  9
$LWDISPLAY
290
     1
  9
$INSUNITS
 70
     4
  9
$HYPERLINKBASE
  1

  9
$STYLESHEET
  1

  9
$XEDIT
290
     1
  9
$CEPSNTYPE
380
     0
  9
$PSTYLEMODE
290
     1
  9
$FINGERPRINTGUID
  2
{17b96777-794e-458a-a1c9-3d06b26664d1}
  9
$VERSIONGUID
  2
{FAEB1C32-E019-11D5-929B-00C0DF256EC4}
  9
$EXTNAMES
290
     1
  9
$PSVPSCALE
 40
0.0
  9
$OLESTARTUP
290
     0
  0
ENDSEC
  0
SECTION
  2
CLASSES
  0
CLASS
  1
ACDBDICTIONARYWDFLT
  2
AcDbDictionaryWithDefault
  3
ObjectDBX Classes
 90
        0
280
     0
281
     0
  0
CLASS
  1
VISUALSTYLE
  2
AcDbVisualStyle
  3
ObjectDBX Classes
 90
     4095
280
     0
281
     0
  0
CLASS
  1
MATERIAL
  2
AcDbMaterial
  3
ObjectDBX Classes
 90
     1153
280
     0
281
     0
  0
CLASS
  1
SCALE
  2
AcDbScale
  3
ObjectDBX Classes
 90
     1153
280
     0
281
     0
  0
CLASS
  1
TABLESTYLE
  2
AcDbTableStyle
  3
ObjectDBX Classes
 90
     4095
280
     0
281
     0
  0
CLASS
  1
MLEADERSTYLE
  2
AcDbMLeaderStyle
  3
ACDB_MLEADERSTYLE_CLASS
 90
     4095
280
     0
281
     0
  0
CLASS
  1
SUN
  2
AcDbSun
  3
SCENEOE
 90
     1153
280
     0
281
     0
  0
CLASS
  1
ACDBPLACEHOLDER
  2
AcDbPlaceHolder
  3
ObjectDBX Classes
 90
        0
280
     0
281
     0
  0
CLASS
  1
LAYOUT
  2
AcDbLayout
  3
ObjectDBX Classes
 90
        0
280
     0
281
     0
  0
ENDSEC
  0
SECTION
  2
TABLES
  0
TABLE
  2
VPORT
  5
8
330
0
100
AcDbSymbolTable
 70
     1
  0
VPORT
  5
29
330
8
100
AcDbSymbolTableRecord
100
AcDbViewportTableRecord
  2
*Active
 70
     0
 10
0.0
 20
0.0
 11
1.0
 21
1.0
 12
134.4959675721
 22
11.0710835622
 13
0.0
 23
0.0
 14
10.0
 24
10.0
 15
10.0
 25
10.0
 16
0.0
 26
0.0
 36
1.0
 17
0.0
 27
0.0
 37
0.0
 40
35.4037912225
 41
7.6876188845
 42
50.0
 43
0.0
 44
0.0
 50
0.0
 51
0.0
 71
     0
 72
   100
 73
     1
 74
     3
 75
     0
 76
     0
 77
     0
 78
     0
281
     0
 65
     1
110
0.0
120
0.0
130
0.0
111
1.0
121
0.0
131
0.0
112
0.0
122
1.0
132
0.0
 79
     0
146
0.0
  0
ENDTAB
  0
TABLE
  2
LTYPE
  5
5
330
0
100
AcDbSymbolTable
 70
     6
  0
LTYPE
  5
14
330
5
100
AcDbSymbolTableRecord
100
AcDbLinetypeTableRecord
  2
ByBlock
 70
     0
  3

 72
    65
 73
     0
 40
0.0
  0
LTYPE
  5
15
330
5
100
AcDbSymbolTableRecord
100
AcDbLinetypeTableRecord
  2
ByLayer
 70
     0
  3

 72
    65
 73
     0
 40
0.0
  0
LTYPE
  5
16
330
5
100
AcDbSymbolTableRecord
100
AcDbLinetypeTableRecord
  2
Continuous
 70
     0
  3
Solid line
 72
    65
 73
     0
 40
0.0
  0
LTYPE
  5
5E
330
5
100
AcDbSymbolTableRecord
100
AcDbLinetypeTableRecord
  2
HIDDEN
 70
     0
  3
Hidden __ __ __ __ __ __ __ __ __ __ __ __ __ __
 72
    65
 73
     2
 40
1.905
 49
1.27
 74
     0
 49
-0.635
 74
     0
  0
LTYPE
  5
5F
330
5
100
AcDbSymbolTableRecord
100
AcDbLinetypeTableRecord
  2
PHANTOM
 70
     0
  3
Phantom ______  __  __  ______  __  __  ______
 72
    65
 73
     6
 40
12.7
 49
6.35
 74
     0
 49
-1.27
 74
     0
 49
1.27
 74
     0
 49
-1.27
 74
     0
 49
1.27
 74
     0
 49
-1.27
 74
     0
  0
LTYPE
  5
60
330
5
100
AcDbSymbolTableRecord
100
AcDbLinetypeTableRecord
  2
CENTER
 70
     0
  3
Center ____ _ ____ _ ____ _ ____ _ ____ _ ____
 72
    65
 73
     4
 40
10.16
 49
6.35
 74
     0
 49
-1.27
 74
     0
 49
1.27
 74
     0
 49
-1.27
 74
     0
  0
LTYPE
  5
61
330
5
100
AcDbSymbolTableRecord
100
AcDbLinetypeTableRecord
  2
CENTERX2
 70
     0
  3
Center (2x) ________  __  ________  __  _____
 72
    65
 73
     4
 40
20.32
 49
12.7
 74
     0
 49
-2.54
 74
     0
 49
2.54
 74
     0
 49
-2.54
 74
     0
  0
LTYPE
  5
62
330
5
100
AcDbSymbolTableRecord
100
AcDbLinetypeTableRecord
  2
DOT2
 70
     0
  3
Dot (.5x) ........................................
 72
    65
 73
     2
 40
0.635
 49
0.0
 74
     0
 49
-0.635
 74
     0
  0
ENDTAB
  0
TABLE
  2
LAYER
  5
2
330
0
100
AcDbSymbolTable
 70
     1
  0
LAYER
  5
10
330
2
100
AcDbSymbolTableRecord
100
AcDbLayerTableRecord
  2
0
 70
     0
 62
     7
  6
Continuous
370
    -3
390
F
  0
ENDTAB
  0
TABLE
  2
STYLE
  5
3
330
0
100
AcDbSymbolTable
 70
     1
  0
STYLE
  5
11
330
3
100
AcDbSymbolTableRecord
100
AcDbTextStyleTableRecord
  2
Standard
 70
     0
 40
0.0
 41
1.0
 50
0.0
 71
     0
 42
3.5
  3
txt
  4

  0
ENDTAB
  0
TABLE
  2
VIEW
  5
6
330
0
100
AcDbSymbolTable
 70
     0
  0
ENDTAB
  0
TABLE
  2
UCS
  5
7
330
0
100
AcDbSymbolTable
 70
     0
  0
ENDTAB
  0
TABLE
  2
APPID
  5
9
330
0
100
AcDbSymbolTable
 70
     1
  0
APPID
  5
12
330
9
100
AcDbSymbolTableRecord
100
AcDbRegAppTableRecord
  2
ACAD
 70
     0
  0
ENDTAB
  0
TABLE
  2
DIMSTYLE
  5
A
330
0
100
AcDbSymbolTable
 70
     1
100
AcDbDimStyleTable
  0
DIMSTYLE
105
27
330
A
100
AcDbSymbolTableRecord
100
AcDbDimStyleTableRecord
  2
ISO-25
 70
     0
 41
2.5
 42
0.625
 43
3.75
 44
1.25
 73
     0
 74
     0
 77
     1
 78
     8
140
2.5
141
2.5
143
0.0393700787
147
0.625
171
     3
172
     1
178
     0
271
     2
272
     2
274
     3
278
    44
283
     0
284
     8
340
11
  0
ENDTAB
  0
TABLE
  2
BLOCK_RECORD
  5
1
330
0
100
AcDbSymbolTable
 70
     1
  0
BLOCK_RECORD
  5
1F
330
1
100
AcDbSymbolTableRecord
100
AcDbBlockTableRecord
  2
*Model_Space
340
22
  0
BLOCK_RECORD
  5
1B
330
1
100
AcDbSymbolTableRecord
100
AcDbBlockTableRecord
  2
*Paper_Space
340
1E
  0
BLOCK_RECORD
  5
23
330
1
100
AcDbSymbolTableRecord
100
AcDbBlockTableRecord
  2
*Paper_Space0
340
26
  0
ENDTAB
  0
ENDSEC
  0
SECTION
  2
BLOCKS
  0
BLOCK
  5
20
330
1F
100
AcDbEntity
  8
0
100
AcDbBlockBegin
  2
*Model_Space
 70
     0
 10
0.0
 20
0.0
 30
0.0
  3
*Model_Space
  1

  0
ENDBLK
  5
21
330
1F
100
AcDbEntity
  8
0
100
AcDbBlockEnd
  0
BLOCK
  5
1C
330
1B
100
AcDbEntity
 67
     1
  8
0
100
AcDbBlockBegin
  2
*Paper_Space
 70
     0
 10
0.0
 20
0.0
 30
0.0
  3
*Paper_Space
  1

  0
ENDBLK
  5
1D
330
1B
100
AcDbEntity
 67
     1
  8
0
100
AcDbBlockEnd
  0
BLOCK
  5
24
330
23
100
AcDbEntity
  8
0
100
AcDbBlockBegin
  2
*Paper_Space0
 70
     0
 10
0.0
 20
0.0
 30
0.0
  3
*Paper_Space0
  1

  0
ENDBLK
  5
25
330
23
100
AcDbEntity
  8
0
100
AcDbBlockEnd
  0
ENDSEC
  0
SECTION
  2
ENTITIES
  0
LINE
  5
63
330
1F
100
AcDbEntity
  8
0
  6
Continuous
 62
     7
370
    25
100
AcDbLine
 10
267.9130528585
 20
0.4121868081
 30
0.0
 11
267.9130528585
 21
1.3499013953
 31
0.0
  0
LINE
  5
64
330
1F
100
AcDbEntity
  8
0
  6
Continuous
 62
     7
370
    25
100
AcDbLine
 10
261.9130528585
 20
1.3499013953
 30
0.0
 11
267.9130528585
 21
1.3499013953
 31
0.0
  0
LINE
  5
65
330
1F
100
AcDbEntity
  8
0
  6
Continuous
 62
     7
370
    25
100
AcDbLine
 10
261.9130528585
 20
3.4121868081
 30
0.0
 11
261.9130528585
 21
1.3499013953
 31
0.0
  0
LINE
  5
66
330
1F
100
AcDbEntity
  8
0
  6
Continuous
 62
     7
370
    25
100
AcDbLine
 10
267.9130528585
 20
3.3621868081
 30
0.0
 11
261.9130528585
 21
3.4121868081
 31
0.0
  0
LINE
  5
67
330
1F
100
AcDbEntity
  8
0
  6
Continuous
 62
     7
370
    25
100
AcDbLine
 10
267.9130528585
 20
6.4121868081
 30
0.0
 11
267.9130528585
 21
3.3621868081
 31
0.0
  0
SPLINE
  5
68
330
1F
100
AcDbEntity
  8
0
  6
Continuous
 62
     7
370
    25
100
AcDbSpline
210
0.0
220
0.0
230
1.0
 70
     8
 71
     3
 72
    17
 73
    13
 74
     0
 42
0.00000001
 43
0.00000001
 40
0.0531109488179486
 40
0.0531109488179486
 40
0.0531109488179486
 40
0.0531109488179486
 40
0.0782365102310486
 40
0.1083655880458596
 40
0.1384946658606706
 40
0.1686237436754815
 40
0.1987528214902925
 40
0.2288818993051035
 40
0.2590109771199144
 40
0.2891400549347254
 40
0.3192691327495364
 40
0.342510787272941
 40
0.342510787272941
 40
0.342510787272941
 40
0.342510787272941
 10
267.9130528585245
 20
6.412186808113591
 30
0.0
 10
262.8803378957119
 20
7.48073981470934
 30
0.0
 10
251.8029555972097
 20
9.783833742678
 30
0.0
 10
234.6482479709046
 20
13.15278659541801
 30
0.0
 10
216.4484785927688
 20
16.47891418346091
 30
0.0
 10
198.1828735589429
 20
19.371550405312
 30
0.0
 10
179.8505713457832
 20
21.92414848766163
 30
0.0
 10
161.5031626819291
 20
24.35861482509964
 30
0.0
 10
143.1278922689116
 20
26.47319098507276
 30
0.0
 10
124.7122390585449
 20
28.04378008596976
 30
0.0
 10
107.6610767395038
 20
28.62779422563702
 30
0.0
 10
96.7492833978133
 20
28.54184530693147
 30
0.0
 10
91.99999999999999
 20
28.42588318104348
 30
0.0
  0
LINE
  5
69
330
1F
100
AcDbEntity
  8
0
  6
Continuous
 62
     7
370
    25
100
AcDbLine
 10
92.0
 20
28.425883181
 30
0.0
 11
92.0
 21
12.3715
 31
0.0
  0
LINE
  5
6A
330
1F
100
AcDbEntity
  8
0
  6
Continuous
 62
     7
370
    25
100
AcDbLine
 10
90.0
 20
12.3715
 30
0.0
 11
92.0
 21
12.3715
 31
0.0
  0
LINE
  5
6B
330
1F
100
AcDbEntity
  8
0
  6
Continuous
 62
     7
370
    25
100
AcDbLine
 10
90.0
 20
28.3724262174
 30
0.0
 11
90.0
 21
12.3715
 31
0.0
  0
SPLINE
  5
6C
330
1F
100
AcDbEntity
  8
0
  6
Continuous
 62
     7
370
    25
100
AcDbSpline
210
0.0
220
0.0
230
1.0
 70
     8
 71
     3
 72
    24
 73
    20
 74
     0
 42
0.00000001
 43
0.00000001
 40
0.3457735334523269
 40
0.3457735334523269
 40
0.3457735334523269
 40
0.3457735334523269
 40
0.3493982105643473
 40
0.3795272883791583
 40
0.3945918272865638
 40
0.4096563661939693
 40
0.4247209051013747
 40
0.4397854440087802
 40
0.4473177134624829
 40
0.4548499829161857
 40
0.4623822523698884
 40
0.4699145218235912
 40
0.4774467912772939
 40
0.4849790607309967
 40
0.4925113301846994
 40
0.4962774649115508
 40
0.5000435996384022
 40
0.5038097343652534
 40
0.5039856780287215
 40
0.5039856780287215
 40
0.5039856780287215
 40
0.5039856780287215
 10
90.00000000000001
 20
28.37242621740199
 30
0.0
 10
89.25944698231581
 20
28.35092874349412
 30
0.0
 10
82.36399634309345
 20
28.1332243896652
 30
0.0
 10
72.4033473608448
 20
27.5865247924131
 30
0.0
 10
60.1858620524171
 20
26.22626808535386
 30
0.0
 10
51.08099108847968
 20
24.79810861974642
 30
0.0
 10
42.03394352389474
 20
23.00008794434733
 30
0.0
 10
34.58199433696706
 20
21.17492290261155
 30
0.0
 10
28.69735166081252
 20
19.44563851046633
 30
0.0
 10
24.36198108567303
 20
17.98344111450535
 30
0.0
 10
20.17482899847511
 20
16.20794936710532
 30
0.0
 10
16.07894198907984
 20
14.13991298922789
 30
0.0
 10
12.04029671276284
 20
11.94676662584054
 30
0.0
 10
8.140114329565659
 20
9.56039573038663
 30
0.0
 10
5.153679336664987
 20
7.316395723669225
 30
0.0
 10
3.100060439250996
 20
5.200618051676322
 30
0.0
 10
1.813825976317191
 20
3.4707309241345
 30
0.0
 10
1.237398467484933
 20
2.18050633907175
 30
0.0
 10
1.085380704518105
 20
1.52905893649231
 30
0.0
 10
1.078882285579589
 20
1.499999999999869
 30
0.0
  0
LINE
  5
6D
330
1F
100
AcDbEntity
  8
0
  6
Continuous
 62
     7
370
    25
100
AcDbLine
 10
1.0788822856
 20
1.5
 30
0.0
 11
6.0
 21
1.5
 31
0.0
  0
LINE
  5
6E
330
1F
100
AcDbEntity
  8
0
  6
Continuous
 62
     7
370
    25
100
AcDbLine
 10
6.0
 20
-1.5
 30
0.0
 11
6.0
 21
1.5
 31
0.0
  0
LINE
  5
6F
330
1F
100
AcDbEntity
  8
0
  6
Continuous
 62
     7
370
    25
100
AcDbLine
 10
1.5223796181
 20
-1.5
 30
0.0
 11
6.0
 21
-1.5
 31
0.0
  0
SPLINE
  5
70
330
1F
100
AcDbEntity
  8
0
  6
Continuous
 62
     7
370
    25
100
AcDbSpline
210
0.0
220
0.0
230
1.0
 70
     8
 71
     3
 72
    31
 73
    27
 74
     0
 42
0.00000001
 43
0.00000001
 40
0.5101822550677261
 40
0.5101822550677261
 40
0.5101822550677261
 40
0.5101822550677261
 40
0.5113420038189562
 40
0.5151081385458076
 40
0.518874273272659
 40
0.5226404079995104
 40
0.5264065427263618
 40
0.5301726774532132
 40
0.537704946906916
 40
0.5452372163606186
 40
0.5527694858143213
 40
0.5603017552680241
 40
0.5753662941754296
 40
0.5904308330828351
 40
0.6054953719902405
 40
0.6205599108976461
 40
0.6356244498050516
 40
0.6506889887124571
 40
0.6808180665272681
 40
0.710947144342079
 40
0.74107622215689
 40
0.771205299971701
 40
0.8013343777865118
 40
0.8314634556013228
 40
0.8615925334161338
 40
0.8731173118863552
 40
0.8731173118863552
 40
0.8731173118863552
 40
0.8731173118863552
 10
1.522379626160565
 20
-1.499999995672275
 30
0.0
 10
1.617903459491382
 20
-1.678770520119001
 30
0.0
 10
2.06818648962312
 20
-2.424421218294722
 30
0.0
 10
3.143139608057062
 20
-3.601090844719868
 30
0.0
 10
4.854252999835159
 20
-4.619355755878897
 30
0.0
 10
6.927567017005443
 20
-5.105597910684638
 30
0.0
 10
9.209034620508435
 20
-5.454839075306077
 30
0.0
 10
12.21997186473241
 20
-5.84289763047618
 30
0.0
 10
16.02013235866401
 20
-6.142662219556911
 30
0.0
 10
20.60952497611691
 20
-6.261136800382778
 30
0.0
 10
25.23145751665203
 20
-6.286948592288799
 30
0.0
 10
31.3973801686392
 20
-6.280305850595446
 30
0.0
 10
39.10727496925699
 20
-6.240736398201224
 30
0.0
 10
48.33681305095668
 20
-6.022096429488307
 30
0.0
 10
57.57993596657081
 20
-5.612990735937136
 30
0.0
 10
66.84065447055367
 20
-5.242934225891045
 30
0.0
 10
76.09655655542082
 20
-4.921715720855557
 30
0.0
 10
88.43599851270166
 20
-4.515955407613959
 30
0.0
 10
103.8531208959708
 20
-3.973102953041607
 30
0.0
 10
122.3546250147999
 20
-3.248110744176757
 30
0.0
 10
140.8578359726233
 20
-2.495489965523846
 30
0.0
 10
159.3685278133926
 20
-1.80408963789973
 30
0.0
 10
177.8841739188486
 20
-1.222493212703915
 30
0.0
 10
196.4033921004804
 20
-0.7748772573589572
 30
0.0
 10
211.1060343531914
 20
-0.4614393402987803
 30
0.0
 10
219.638958117963
 20
-0.2801493796795155
 30
0.0
 10
222.0000000000078
 20
-0.2314058329058971
 30
0.0
  0
LINE
  5
71
330
1F
100
AcDbEntity
  8
0
  6
Continuous
 62
     7
370
    25
100
AcDbLine
 10
222.0
 20
-0.2314058325
 30
0.0
 11
222.0
 21
3.7682847646
 31
0.0
  0
LINE
  5
72
330
1F
100
AcDbEntity
  8
0
  6
Continuous
 62
     7
370
    25
100
AcDbLine
 10
222.0
 20
3.7682847646
 30
0.0
 11
224.0
 21
3.7682847646
 31
0.0
  0
LINE
  5
73
330
1F
100
AcDbEntity
  8
0
  6
Continuous
 62
     7
370
    25
100
AcDbLine
 10
224.0
 20
-0.1904862126
 30
0.0
 11
224.0
 21
3.7682847646
 31
0.0
  0
SPLINE
  5
74
330
1F
100
AcDbEntity
  8
0
  6
Continuous
 62
     7
370
    25
100
AcDbSpline
210
0.0
220
0.0
230
1.0
 70
     8
 71
     3
 72
    10
 73
     6
 74
     0
 42
0.00000001
 43
0.00000001
 40
0.8763714003076133
 40
0.8763714003076133
 40
0.8763714003076133
 40
0.8763714003076133
 40
0.8917216112309448
 40
0.9218506890457558
 40
0.9478116769597233
 40
0.9478116769597233
 40
0.9478116769597233
 40
0.9478116769597233
 10
224.0000000000049
 20
-0.1904862128836445
 30
0.0
 10
227.1448669601243
 20
-0.1267735393179078
 30
0.0
 10
236.463303783884
 20
0.0525179557647105
 30
0.0
 10
251.1068191029436
 20
0.2454031872663484
 30
0.0
 10
262.5943837096818
 20
0.3555229886476552
 30
0.0
 10
267.9130528585245
 20
0.4121868081137616
 30
0.0
  0
CIRCLE
  5
75
330
1F
100
AcDbEntity
  8
0
  6
Continuous
 62
     7
370
    25
100
AcDbCircle
 10
79.0
 20
8.0
 30
0.0
 40
5.0
  0
CIRCLE
  5
76
330
1F
100
AcDbEntity
  8
0
  6
Continuous
 62
     7
370
    25
100
AcDbCircle
 10
209.0
 20
8.0
 30
0.0
 40
4.0
  0
SPLINE
  5
77
330
1F
100
AcDbEntity
  8
0
  6
Continuous
 62
     7
370
    25
100
AcDbSpline
210
0.0
220
0.0
230
1.0
 70
     8
 71
     3
 72
    14
 73
    10
 74
     0
 42
0.00000001
 43
0.00000001
 40
0.4882482965873936
 40
0.4882482965873936
 40
0.4882482965873936
 40
0.4882482965873936
 40
0.5000000000000007
 40
0.5000000000000007
 40
0.5625000000000009
 40
0.5625000000000009
 40
0.625000000000001
 40
0.625000000000001
 40
0.6563470881797654
 40
0.6563470881797654
 40
0.6563470881797654
 40
0.6563470881797654
 10
192.7140904755003
 20
15.06076724381397
 30
0.0
 10
191.9446132005652
 20
15.17180073184958
 30
0.0
 10
191.1748256587727
 20
15.28209972823184
 30
0.0
 10
186.3089546190316
 20
15.97475599695948
 30
0.0
 10
182.2037865828306
 20
16.53961557654569
 30
0.0
 10
173.9880305121831
 20
17.6533201760826
 30
0.0
 10
169.883033970863
 20
18.19981238916976
 30
0.0
 10
163.7225443203664
 20
18.98956936940109
 30
0.0
 10
161.6653083482549
 20
19.24828669970844
 30
0.0
 10
159.6086044040478
 20
19.50050592437537
 30
0.0
  0
ARC
  5
78
330
1F
100
AcDbEntity
  8
0
  6
Continuous
 62
     7
370
    25
100
AcDbCircle
 10
192.0
 20
10.1120224744
 30
0.0
 40
5.000000000000568
100
AcDbArc
 50
0.0
 51
81.7890497483
  0
LINE
  5
79
330
1F
100
AcDbEntity
  8
0
  6
Continuous
 62
     7
370
    25
100
AcDbLine
 10
197.0
 20
10.1120224744
 30
0.0
 11
197.0
 21
9.1172598522
 31
0.0
  0
ARC
  5
7A
330
1F
100
AcDbEntity
  8
0
  6
Continuous
 62
     7
370
    25
100
AcDbCircle
 10
192.0
 20
9.1172598522
 30
0.0
 40
5.000000000000004
100
AcDbArc
 50
271.3460628217
 51
0.0
  0
SPLINE
  5
7B
330
1F
100
AcDbEntity
  8
0
  6
Continuous
 62
     7
370
    25
100
AcDbSpline
210
0.0
220
0.0
230
1.0
 70
     8
 71
     3
 72
    12
 73
     8
 74
     0
 42
0.00000001
 43
0.00000001
 40
0.7190858504006337
 40
0.7190858504006337
 40
0.7190858504006337
 40
0.7190858504006337
 40
0.7499999999999999
 40
0.7499999999999999
 40
0.8125
 40
0.8125
 40
0.8665467985838462
 40
0.8665467985838462
 40
0.8665467985838462
 40
0.8665467985838462
 10
159.172000714515
 20
3.173576863714199
 30
0.0
 10
161.4736778281654
 20
3.252801775401731
 30
0.0
 10
163.7756862087407
 20
3.329549926476782
 30
0.0
 10
170.7324555058564
 20
3.552774746488367
 30
0.0
 10
175.3886899174535
 20
3.69075439543523
 30
0.0
 10
184.0702003104848
 20
3.924521784316676
 30
0.0
 10
188.0947383331624
 20
4.024115618834982
 30
0.0
 10
192.1174553356361
 20
4.118639618173281
 30
0.0
  0
ARC
  5
7C
330
1F
100
AcDbEntity
  8
0
  6
Continuous
 62
     7
370
    25
100
AcDbCircle
 10
159.0
 20
8.1706175634
 30
0.0
 40
4.999999999999975
100
AcDbArc
 50
180.0
 51
271.9713719438
  0
LINE
  5
7D
330
1F
100
AcDbEntity
  8
0
  6
Continuous
 62
     7
370
    25
100
AcDbLine
 10
154.0
 20
14.5376840779
 30
0.0
 11
154.0
 21
8.1706175634
 31
0.0
  0
ARC
  5
7E
330
1F
100
AcDbEntity
  8
0
  6
Continuous
 62
     7
370
    25
100
AcDbCircle
 10
159.0
 20
14.5376840779
 30
0.0
 40
5.000000000000028
100
AcDbArc
 50
83.0085700822
 51
180.0
  0
SPLINE
  5
7F
330
1F
100
AcDbEntity
  8
0
  6
Continuous
 62
     7
370
    25
100
AcDbSpline
210
0.0
220
0.0
230
1.0
 70
     8
 71
     3
 72
    12
 73
     8
 74
     0
 42
0.00000001
 43
0.00000001
 40
0.467989967099242
 40
0.467989967099242
 40
0.467989967099242
 40
0.467989967099242
 40
0.4999999999999991
 40
0.4999999999999991
 40
0.6249999999999996
 40
0.6249999999999996
 40
0.6475155538926968
 40
0.6475155538926968
 40
0.6475155538926968
 40
0.6475155538926968
 10
103.1853723499133
 20
1.017932580053593
 30
0.0
 10
105.5608674541788
 20
1.106063391431154
 30
0.0
 10
107.9364377791961
 20
1.195881882791249
 30
0.0
 10
119.5909276563548
 20
1.644191099854335
 30
0.0
 10
128.8734394928645
 20
2.026235766213528
 30
0.0
 10
139.8428982737661
 20
2.458620096339695
 30
0.0
 10
141.51750823347
 20
2.523944638237948
 30
0.0
 10
143.1924055766371
 20
2.588444329187425
 30
0.0
  0
ARC
  5
80
330
1F
100
AcDbEntity
  8
0
  6
Continuous
 62
     7
370
    25
100
AcDbCircle
 10
103.0
 20
6.0144951076
 30
0.0
 40
5.0
100
AcDbArc
 50
180.0
 51
272.124697586
  0
LINE
  5
81
330
1F
100
AcDbEntity
  8
0
  6
Continuous
 62
     7
370
    25
100
AcDbLine
 10
98.0
 20
18.5500799879
 30
0.0
 11
98.0
 21
6.0144951076
 31
0.0
  0
ARC
  5
82
330
1F
100
AcDbEntity
  8
0
  6
Continuous
 62
     7
370
    25
100
AcDbCircle
 10
103.0
 20
18.5500799879
 30
0.0
 40
5.000000000000028
100
AcDbArc
 50
89.8716509755
 51
180.0
  0
SPLINE
  5
83
330
1F
100
AcDbEntity
  8
0
  6
Continuous
 62
     7
370
    25
100
AcDbSpline
210
0.0
220
0.0
230
1.0
 70
     8
 71
     3
 72
    16
 73
    12
 74
     0
 42
0.00000001
 43
0.00000001
 40
0.7382171060113166
 40
0.7382171060113166
 40
0.7382171060113166
 40
0.7382171060113166
 40
0.750000000000001
 40
0.750000000000001
 40
0.8125000000000008
 40
0.8125000000000008
 40
0.8750000000000004
 40
0.8750000000000004
 40
0.9375000000000002
 40
0.9375000000000002
 40
0.9446078522479742
 40
0.9446078522479742
 40
0.9446078522479742
 40
0.9446078522479742
 10
143.5052504359654
 20
21.31844676300653
 30
0.0
 10
142.7332692683045
 20
21.39685688208081
 30
0.0
 10
141.9613716168393
 20
21.47382547730781
 30
0.0
 10
137.0956316369625
 20
21.9494958594318
 30
0.0
 10
133.0066876722076
 20
22.30584623152334
 30
0.0
 10
124.8387582324658
 20
22.89193753791431
 30
0.0
 10
120.7602708100728
 20
23.11839433626121
 30
0.0
 10
112.5893498192863
 20
23.43190904105557
 30
0.0
 10
108.5002434699936
 20
23.52064141784259
 30
0.0
 10
103.9422078156541
 20
23.54715360958504
 30
0.0
 10
103.4767258087955
 20
23.54902461169013
 30
0.0
 10
103.0112005559772
 20
23.55006744263723
 30
0.0
  0
ARC
  5
84
330
1F
100
AcDbEntity
  8
0
  6
Continuous
 62
     7
370
    25
100
AcDbCircle
 10
143.0
 20
16.344040065
 30
0.0
 40
5.000000000000003
100
AcDbArc
 50
0.0
 51
84.200357637
  0
LINE
  5
85
330
1F
100
AcDbEntity
  8
0
  6
Continuous
 62
     7
370
    25
100
AcDbLine
 10
148.0
 20
16.344040065
 30
0.0
 11
148.0
 21
7.5847409671
 31
0.0
  0
ARC
  5
86
330
1F
100
AcDbEntity
  8
0
  6
Continuous
 62
     7
370
    25
100
AcDbCircle
 10
143.0
 20
7.5847409671
 30
0.0
 40
5.00000000000003
100
AcDbArc
 50
272.2053500067
 51
0.0
  0
SPLINE
  5
87
330
1F
100
AcDbEntity
  8
0
  6
Continuous
 62
     7
370
    25
100
AcDbSpline
210
0.0
220
0.0
230
1.0
 70
     8
 71
     3
 72
    20
 73
    16
 74
     0
 42
0.00000001
 43
0.00000001
 40
0.0299203830333787
 40
0.0299203830333787
 40
0.0299203830333787
 40
0.0299203830333787
 40
0.0334940039790079
 40
0.0334940039790079
 40
0.0446586719720105
 40
0.0446586719720105
 40
0.0558233399650132
 40
0.0558233399650132
 40
0.0614056739615145
 40
0.0614056739615145
 40
0.0669880079580158
 40
0.0669880079580158
 40
0.0725703419545171
 40
0.0725703419545171
 40
0.0732563532616059
 40
0.0732563532616059
 40
0.0732563532616059
 40
0.0732563532616059
 10
60.32352660974183
 20
21.12923419485823
 30
0.0
 10
59.14328274235024
 20
20.96807165648793
 30
0.0
 10
57.96443176834364
 20
20.79673639801437
 30
0.0
 10
53.10924942751254
 20
20.0467733786199
 30
0.0
 10
49.44585759492533
 20
19.38425318131856
 30
0.0
 10
42.15867302788208
 20
17.86871457707655
 30
0.0
 10
38.5333796107771
 20
17.01958634319357
 30
0.0
 10
33.14899044745221
 20
15.54622074485626
 30
0.0
 10
31.36294201155635
 20
15.02243939930571
 30
0.0
 10
27.82100599494215
 20
13.88021862468005
 30
0.0
 10
26.06723860847742
 20
13.25327183519227
 30
0.0
 10
22.63581805923861
 20
11.81267055168707
 30
0.0
 10
20.95794275317039
 20
11.00484770360811
 30
0.0
 10
19.09959219485422
 20
10.04968909742479
 30
0.0
 10
18.89644162127556
 20
9.9447000933002
 30
0.0
 10
18.69354747651435
 20
9.839213216835839
 30
0.0
  0
ARC
  5
88
330
1F
100
AcDbEntity
  8
0
  6
Continuous
 62
     7
370
    25
100
AcDbCircle
 10
61.0
 20
16.1752071711
 30
0.0
 40
4.999999999999996
100
AcDbArc
 50
0.0
 51
97.7756600319
  0
LINE
  5
89
330
1F
100
AcDbEntity
  8
0
  6
Continuous
 62
     7
370
    25
100
AcDbLine
 10
66.0
 20
16.1752071711
 30
0.0
 11
66.0
 21
4.5297325893
 31
0.0
  0
ARC
  5
8A
330
1F
100
AcDbEntity
  8
0
  6
Continuous
 62
     7
370
    25
100
AcDbCircle
 10
61.0
 20
4.5297325893
 30
0.0
 40
4.999999999999975
100
AcDbArc
 50
272.3083759183
 51
0.0
  0
SPLINE
  5
8B
330
1F
100
AcDbEntity
  8
0
  6
Continuous
 62
     7
370
    25
100
AcDbSpline
210
0.0
220
0.0
230
1.0
 70
     8
 71
     3
 72
    20
 73
    16
 74
     0
 42
0.00000001
 43
0.00000001
 40
0.0976648488289569
 40
0.0976648488289569
 40
0.0976648488289569
 40
0.0976648488289569
 40
0.1093749999999992
 40
0.1093749999999992
 40
0.1249999999999991
 40
0.1249999999999991
 40
0.1562499999999989
 40
0.1562499999999989
 40
0.1874999999999988
 40
0.1874999999999988
 40
0.2187499999999986
 40
0.2187499999999986
 40
0.2499999999999985
 40
0.2499999999999985
 40
0.2797483416289345
 40
0.2797483416289345
 40
0.2797483416289345
 40
0.2797483416289345
 10
20.92665019505041
 20
-1.24988966826954
 30
0.0
 10
21.77417227615367
 20
-1.262324122204876
 30
0.0
 10
22.62894416215733
 20
-1.27007632219588
 30
0.0
 10
24.63135754422413
 20
-1.281688823122219
 30
0.0
 10
25.78455056974553
 20
-1.283642156769206
 30
0.0
 10
29.24627898079211
 20
-1.283863887369608
 30
0.0
 10
31.56449899064897
 20
-1.277624198801213
 30
0.0
 10
36.178821913912
 20
-1.249716978288157
 30
0.0
 10
38.47720826087642
 20
-1.225805817008421
 30
0.0
 10
43.06591677275313
 20
-1.14335377179272
 30
0.0
 10
45.35783044728691
 20
-1.085798853128699
 30
0.0
 10
49.94207152363182
 20
-0.9353630788782099
 30
0.0
 10
52.24360043475264
 20
-0.8410295969532467
 30
0.0
 10
56.76526242540428
 20
-0.6499054269812182
 30
0.0
 10
58.9839677239834
 20
-0.5555955337073631
 30
0.0
 10
61.20138930842957
 20
-0.4662099990500084
 30
0.0
  0
ARC
  5
8C
330
1F
100
AcDbEntity
  8
0
  6
Continuous
 62
     7
370
    25
100
AcDbCircle
 10
21.0
 20
3.7495722834
 30
0.0
 40
5.000000000000002
100
AcDbArc
 50
180.0
 51
269.1594429988
  0
LINE
  5
8D
330
1F
100
AcDbEntity
  8
0
  6
Continuous
 62
     7
370
    25
100
AcDbLine
 10
16.0
 20
5.4029674215
 30
0.0
 11
16.0
 21
3.7495722834
 31
0.0
  0
ARC
  5
8E
330
1F
100
AcDbEntity
  8
0
  6
Continuous
 62
     7
370
    25
100
AcDbCircle
 10
21.0
 20
5.4029674215
 30
0.0
 40
4.999999999999995
100
AcDbArc
 50
117.4704128082
 51
180.0
  0
ENDSEC
  0
SECTION
  2
OBJECTS
  0
DICTIONARY
  5
C
330
0
100
AcDbDictionary
281
     1
  3
ACAD_GROUP
350
D
  3
ACAD_LAYOUT
350
1A
  3
ACAD_MLINESTYLE
350
17
  3
ACAD_PLOTSETTINGS
350
19
  3
ACAD_PLOTSTYLENAME
350
E
  3
ACAD_SCALELIST
350
47
  3
DWGPROPS
350
8F
  0
DICTIONARY
  5
D
102
{ACAD_REACTORS
330
C
102
}
330
C
100
AcDbDictionary
281
     1
  0
DICTIONARY
  5
1A
102
{ACAD_REACTORS
330
C
102
}
330
C
100
AcDbDictionary
281
     1
  3
Layout1
350
1E
  3
Layout2
350
26
  3
Model
350
22
  0
DICTIONARY
  5
17
102
{ACAD_REACTORS
330
C
102
}
330
C
100
AcDbDictionary
281
     1
  3
Standard
350
18
  0
DICTIONARY
  5
19
102
{ACAD_REACTORS
330
C
102
}
330
C
100
AcDbDictionary
281
     1
  0
ACDBDICTIONARYWDFLT
  5
E
102
{ACAD_REACTORS
330
C
102
}
330
C
100
AcDbDictionary
281
     1
  3
Normal
350
F
100
AcDbDictionaryWithDefault
340
F
  0
DICTIONARY
  5
47
102
{ACAD_REACTORS
330
C
102
}
330
C
100
AcDbDictionary
281
     1
  3
A0
350
48
  3
A1
350
49
  3
A2
350
4A
  3
A3
350
4B
  3
A4
350
4C
  3
A5
350
4D
  3
A6
350
4E
  3
A7
350
4F
  3
A8
350
50
  3
A9
350
51
  3
B0
350
52
  3
B1
350
53
  3
B2
350
54
  3
B3
350
55
  3
B4
350
56
  3
B5
350
57
  3
B6
350
58
  0
XRECORD
  5
8F
102
{ACAD_REACTORS
330
C
102
}
330
C
100
AcDbXrecord
280
     1
  1
DWGPROPS COOKIE
  2

  3

  4

  6

  7

  8
Steven
  9

300
=
301
=
302
=
303
=
304
=
305
=
306
=
307
=
308
=
309
=
 40
0.0
 41
2460780.176580671
 42
2460780.176593345
  1

 90
        0
  0
LAYOUT
  5
1E
102
{ACAD_REACTORS
330
1A
102
}
330
1A
100
AcDbPlotSettings
  1

  2
none_device
  4

  6

 40
0.0
 41
0.0
 42
0.0
 43
0.0
 44
0.0
 45
0.0
 46
0.0
 47
0.0
 48
0.0
 49
0.0
140
0.0
141
0.0
142
1.0
143
1.0
 70
   688
 72
     1
 73
     0
 74
     5
  7

 75
    16
147
1.0
148
0.0
149
0.0
100
AcDbLayout
  1
Layout1
 70
     1
 71
     1
 10
0.0
 20
0.0
 11
420.0
 21
297.0
 12
0.0
 22
0.0
 32
0.0
 14
1.0000000000E+20
 24
1.0000000000E+20
 34
1.0000000000E+20
 15
-1.0000000000E+20
 25
-1.0000000000E+20
 35
-1.0000000000E+20
146
0.0
 13
0.0
 23
0.0
 33
0.0
 16
1.0
 26
0.0
 36
0.0
 17
0.0
 27
1.0
 37
0.0
 76
     0
330
1B
  0
LAYOUT
  5
26
102
{ACAD_REACTORS
330
1A
102
}
330
1A
100
AcDbPlotSettings
  1

  2
none_device
  4

  6

 40
0.0
 41
0.0
 42
0.0
 43
0.0
 44
0.0
 45
0.0
 46
0.0
 47
0.0
 48
0.0
 49
0.0
140
0.0
141
0.0
142
1.0
143
1.0
 70
   688
 72
     1
 73
     0
 74
     5
  7

 75
    16
147
1.0
148
0.0
149
0.0
100
AcDbLayout
  1
Layout2
 70
     1
 71
     2
 10
0.0
 20
0.0
 11
0.0
 21
0.0
 12
0.0
 22
0.0
 32
0.0
 14
0.0
 24
0.0
 34
0.0
 15
0.0
 25
0.0
 35
0.0
146
0.0
 13
0.0
 23
0.0
 33
0.0
 16
1.0
 26
0.0
 36
0.0
 17
0.0
 27
1.0
 37
0.0
 76
     0
330
23
  0
LAYOUT
  5
22
102
{ACAD_REACTORS
330
1A
102
}
330
1A
100
AcDbPlotSettings
  1

  2
none_device
  4
ANSI_A_(11.00_x_8.50_Inches)
  6

 40
6.35
 41
19.05
 42
6.35000508
 43
19.05000254
 44
279.4
 45
215.9
 46
-6.0713949589
 47
77.423477064
 48
0.0
 49
0.0
140
0.0
141
0.0
142
0.0408118644
143
1.0
 70
  1696
 72
     0
 73
     0
 74
     0
  7

 75
     0
147
0.0179189148
148
-1300.4909072572
149
0.0
100
AcDbLayout
  1
Model
 70
     1
 71
     0
 10
0.0
 20
0.0
 11
420.0
 21
297.0
 12
0.0
 22
0.0
 32
0.0
 14
1.0788822856
 24
-6.2837160567
 34
0.0
 15
267.9130528585
 25
28.425883181
 35
0.0
146
0.0
 13
0.0
 23
0.0
 33
0.0
 16
1.0
 26
0.0
 36
0.0
 17
0.0
 27
1.0
 37
0.0
 76
     0
330
1F
331
29
  0
MLINESTYLE
  5
18
102
{ACAD_REACTORS
330
17
102
}
330
17
100
AcDbMlineStyle
  2
Standard
 70
     0
  3

 62
   256
 51
90.0
 52
90.0
 71
     2
 49
0.5
 62
   256
  6
BYLAYER
 49
-0.5
 62
   256
  6
BYLAYER
  0
ACDBPLACEHOLDER
  5
F
102
{ACAD_REACTORS
330
E
102
}
330
E
  0
SCALE
  5
48
102
{ACAD_REACTORS
330
47
102
}
330
47
100
AcDbScale
 70
     0
300
1:1
140
1.0
141
1.0
290
     1
  0
SCALE
  5
49
102
{ACAD_REACTORS
330
47
102
}
330
47
100
AcDbScale
 70
     0
300
1:2
140
1.0
141
2.0
290
     0
  0
SCALE
  5
4A
102
{ACAD_REACTORS
330
47
102
}
330
47
100
AcDbScale
 70
     0
300
1:4
140
1.0
141
4.0
290
     0
  0
SCALE
  5
4B
102
{ACAD_REACTORS
330
47
102
}
330
47
100
AcDbScale
 70
     0
300
1:5
140
1.0
141
5.0
290
     0
  0
SCALE
  5
4C
102
{ACAD_REACTORS
330
47
102
}
330
47
100
AcDbScale
 70
     0
300
1:8
140
1.0
141
8.0
290
     0
  0
SCALE
  5
4D
102
{ACAD_REACTORS
330
47
102
}
330
47
100
AcDbScale
 70
     0
300
1:10
140
1.0
141
10.0
290
     0
  0
SCALE
  5
4E
102
{ACAD_REACTORS
330
47
102
}
330
47
100
AcDbScale
 70
     0
300
1:16
140
1.0
141
16.0
290
     0
  0
SCALE
  5
4F
102
{ACAD_REACTORS
330
47
102
}
330
47
100
AcDbScale
 70
     0
300
1:20
140
1.0
141
20.0
290
     0
  0
SCALE
  5
50
102
{ACAD_REACTORS
330
47
102
}
330
47
100
AcDbScale
 70
     0
300
1:30
140
1.0
141
30.0
290
     0
  0
SCALE
  5
51
102
{ACAD_REACTORS
330
47
102
}
330
47
100
AcDbScale
 70
     0
300
1:40
140
1.0
141
40.0
290
     0
  0
SCALE
  5
52
102
{ACAD_REACTORS
330
47
102
}
330
47
100
AcDbScale
 70
     0
300
1:50
140
1.0
141
50.0
290
     0
  0
SCALE
  5
53
102
{ACAD_REACTORS
330
47
102
}
330
47
100
AcDbScale
 70
     0
300
1:100
140
1.0
141
100.0
290
     0
  0
SCALE
  5
54
102
{ACAD_REACTORS
330
47
102
}
330
47
100
AcDbScale
 70
     0
300
2:1
140
2.0
141
1.0
290
     0
  0
SCALE
  5
55
102
{ACAD_REACTORS
330
47
102
}
330
47
100
AcDbScale
 70
     0
300
4:1
140
4.0
141
1.0
290
     0
  0
SCALE
  5
56
102
{ACAD_REACTORS
330
47
102
}
330
47
100
AcDbScale
 70
     0
300
8:1
140
8.0
141
1.0
290
     0
  0
SCALE
  5
57
102
{ACAD_REACTORS
330
47
102
}
330
47
100
AcDbScale
 70
     0
300
10:1
140
10.0
141
1.0
290
     0
  0
SCALE
  5
58
102
{ACAD_REACTORS
330
47
102
}
330
47
100
AcDbScale
 70
     0
300
100:1
140
100.0
141
1.0
290
     0
  0
ENDSEC
  0
EOF
