  0
SECTION
  2
HEADER
  9
$ACADVER
  1
AC1015
  9
$ACADMAINTVER
 70
     6
  9
$DWGCODEPAGE
  3
ANSI_936
  9
$INSBASE
 10
0.0
 20
0.0
 30
0.0
  9
$EXTMIN
 10
0.0579707892
 20
-7.255523657
 30
0.0
  9
$EXTMAX
 10
290.0188439499
 20
29.4468767702
 30
0.0
  9
$LIMMIN
 10
0.0
 20
0.0
  9
$LIMMAX
 10
420.0
 20
297.0
  9
$ORTHOMODE
 70
     0
  9
$REGENMODE
 70
     1
  9
$FILLMODE
 70
     1
  9
$QTEXTMODE
 70
     0
  9
$MIRRTEXT
 70
     1
  9
$LTSCALE
 40
1.0
  9
$ATTMODE
 70
     1
  9
$TEXTSIZE
 40
3.5
  9
$TRACEWID
 40
1.0
  9
$TEXTSTYLE
  7
Standard
  9
$CLAYER
  8
0
  9
$CELTYPE
  6
ByLayer
  9
$CECOLOR
 62
   256
  9
$CELTSCALE
 40
1.0
  9
$DISPSILH
 70
     0
  9
$DIMSCALE
 40
1.0
  9
$DIMASZ
 40
4.08
  9
$DIMEXO
 40
0.0
  9
$DIMDLI
 40
3.75
  9
$DIMRND
 40
0.0
  9
$DIMDLE
 40
0.0
  9
$DIMEXE
 40
2.0
  9
$DIMTP
 40
0.0
  9
$DIMTM
 40
0.0
  9
$DIMTXT
 40
3.5
  9
$DIMCEN
 40
2.5
  9
$DIMTSZ
 40
0.0
  9
$DIMTOL
 70
     0
  9
$DIMLIM
 70
     0
  9
$DIMTIH
 70
     1
  9
$DIMTOH
 70
     1
  9
$DIMSE1
 70
     0
  9
$DIMSE2
 70
     0
  9
$DIMTAD
 70
     1
  9
$DIMZIN
 70
     0
  9
$DIMBLK
  1

  9
$DIMASO
 70
     1
  9
$DIMSHO
 70
     1
  9
$DIMPOST
  1

  9
$DIMAPOST
  1

  9
$DIMALT
 70
     0
  9
$DIMALTD
 70
     3
  9
$DIMALTF
 40
0.0393700787
  9
$DIMLFAC
 40
1.0
  9
$DIMTOFL
 70
     1
  9
$DIMTVP
 40
0.0
  9
$DIMTIX
 70
     0
  9
$DIMSOXD
 70
     0
  9
$DIMSAH
 70
     0
  9
$DIMBLK1
  1

  9
$DIMBLK2
  1

  9
$DIMSTYLE
  2
ISO-25
  9
$DIMCLRD
 70
     0
  9
$DIMCLRE
 70
     0
  9
$DIMCLRT
 70
     0
  9
$DIMTFAC
 40
1.0
  9
$DIMGAP
 40
1.524
  9
$DIMJUST
 70
     0
  9
$DIMSD1
 70
     0
  9
$DIMSD2
 70
     0
  9
$DIMTOLJ
 70
     0
  9
$DIMTZIN
 70
     0
  9
$DIMALTZ
 70
     0
  9
$DIMALTTZ
 70
     0
  9
$DIMUPT
 70
     0
  9
$DIMDEC
 70
     2
  9
$DIMTDEC
 70
     2
  9
$DIMALTU
 70
     2
  9
$DIMALTTD
 70
     3
  9
$DIMTXSTY
  7
Standard
  9
$DIMAUNIT
 70
     0
  9
$DIMADEC
 70
     2
  9
$DIMALTRND
 40
0.0
  9
$DIMAZIN
 70
     0
  9
$DIMDSEP
 70
    44
  9
$DIMATFIT
 70
     3
  9
$DIMFRAC
 70
     0
  9
$DIMLDRBLK
  1

  9
$DIMLUNIT
 70
     2
  9
$DIMLWD
 70
    -2
  9
$DIMLWE
 70
    -2
  9
$DIMTMOVE
 70
     0
  9
$LUNITS
 70
     2
  9
$LUPREC
 70
     2
  9
$SKETCHINC
 40
1.0
  9
$FILLETRAD
 40
0.0
  9
$AUNITS
 70
     0
  9
$AUPREC
 70
     2
  9
$MENU
  1
.
  9
$ELEVATION
 40
0.0
  9
$PELEVATION
 40
0.0
  9
$THICKNESS
 40
0.0
  9
$LIMCHECK
 70
     0
  9
$CHAMFERA
 40
0.0
  9
$CHAMFERB
 40
0.0
  9
$CHAMFERC
 40
0.0
  9
$CHAMFERD
 40
0.0
  9
$SKPOLY
 70
     0
  9
$TDCREATE
 40
2460739.063702477
  9
$TDUCREATE
 40
2460738.730369144
  9
$TDUPDATE
 40
2460739.063727466
  9
$TDUUPDATE
 40
2460738.730394132
  9
$TDINDWG
 40
0.0000000116
  9
$TDUSRTIMER
 40
0.0000000116
  9
$USRTIMER
 70
     1
  9
$ANGBASE
 50
0.0
  9
$ANGDIR
 70
     0
  9
$PDMODE
 70
     0
  9
$PDSIZE
 40
-1.0
  9
$PLINEWID
 40
0.0
  9
$SPLFRAME
 70
     0
  9
$SPLINETYPE
 70
     6
  9
$SPLINESEGS
 70
     8
  9
$HANDSEED
  5
6E
  9
$SURFTAB1
 70
     6
  9
$SURFTAB2
 70
     6
  9
$SURFTYPE
 70
     6
  9
$SURFU
 70
     6
  9
$SURFV
 70
     6
  9
$UCSBASE
  2

  9
$UCSNAME
  2

  9
$UCSORG
 10
0.0
 20
0.0
 30
0.0
  9
$UCSXDIR
 10
1.0
 20
0.0
 30
0.0
  9
$UCSYDIR
 10
0.0
 20
1.0
 30
0.0
  9
$UCSORTHOREF
  2

  9
$UCSORTHOVIEW
 70
     0
  9
$UCSORGTOP
 10
0.0
 20
0.0
 30
0.0
  9
$UCSORGBOTTOM
 10
0.0
 20
0.0
 30
0.0
  9
$UCSORGLEFT
 10
0.0
 20
0.0
 30
0.0
  9
$UCSORGRIGHT
 10
0.0
 20
0.0
 30
0.0
  9
$UCSORGFRONT
 10
0.0
 20
0.0
 30
0.0
  9
$UCSORGBACK
 10
0.0
 20
0.0
 30
0.0
  9
$PUCSBASE
  2

  9
$PUCSNAME
  2

  9
$PUCSORG
 10
0.0
 20
0.0
 30
0.0
  9
$PUCSXDIR
 10
1.0
 20
0.0
 30
0.0
  9
$PUCSYDIR
 10
0.0
 20
1.0
 30
0.0
  9
$PUCSORTHOREF
  2

  9
$PUCSORTHOVIEW
 70
     0
  9
$PUCSORGTOP
 10
0.0
 20
0.0
 30
0.0
  9
$PUCSORGBOTTOM
 10
0.0
 20
0.0
 30
0.0
  9
$PUCSORGLEFT
 10
0.0
 20
0.0
 30
0.0
  9
$PUCSORGRIGHT
 10
0.0
 20
0.0
 30
0.0
  9
$PUCSORGFRONT
 10
0.0
 20
0.0
 30
0.0
  9
$PUCSORGBACK
 10
0.0
 20
0.0
 30
0.0
  9
$USERI1
 70
     0
  9
$USERI2
 70
     0
  9
$USERI3
 70
     0
  9
$USERI4
 70
     0
  9
$USERI5
 70
     0
  9
$USERR1
 40
0.0
  9
$USERR2
 40
0.0
  9
$USERR3
 40
0.0
  9
$USERR4
 40
0.0
  9
$USERR5
 40
0.0
  9
$WORLDVIEW
 70
     1
  9
$SHADEDGE
 70
     3
  9
$SHADEDIF
 70
    70
  9
$TILEMODE
 70
     1
  9
$MAXACTVP
 70
    64
  9
$PINSBASE
 10
0.0
 20
0.0
 30
0.0
  9
$PLIMCHECK
 70
     0
  9
$PEXTMIN
 10
1.0000000000E+20
 20
1.0000000000E+20
 30
1.0000000000E+20
  9
$PEXTMAX
 10
-1.0000000000E+20
 20
-1.0000000000E+20
 30
-1.0000000000E+20
  9
$PLIMMIN
 10
0.0
 20
0.0
  9
$PLIMMAX
 10
420.0
 20
297.0
  9
$UNITMODE
 70
     0
  9
$VISRETAIN
 70
     1
  9
$PLINEGEN
 70
     0
  9
$PSLTSCALE
 70
     1
  9
$TREEDEPTH
 70
  3020
  9
$CMLSTYLE
  2
Standard
  9
$CMLJUST
 70
     0
  9
$CMLSCALE
 40
20.0
  9
$PROXYGRAPHICS
 70
     1
  9
$MEASUREMENT
 70
     1
  9
$CELWEIGHT
370
    -1
  9
$ENDCAPS
280
     0
  9
$JOINSTYLE
280
     0
  9
$LWDISPLAY
290
     1
  9
$INSUNITS
 70
     4
  9
$HYPERLINKBASE
  1

  9
$STYLESHEET
  1

  9
$XEDIT
290
     1
  9
$CEPSNTYPE
380
     0
  9
$PSTYLEMODE
290
     1
  9
$FINGERPRINTGUID
  2
{6fd96163-4f1e-4dd5-9788-3e529c93da4a}
  9
$VERSIONGUID
  2
{FAEB1C32-E019-11D5-929B-00C0DF256EC4}
  9
$EXTNAMES
290
     1
  9
$PSVPSCALE
 40
0.0
  9
$OLESTARTUP
290
     0
  0
ENDSEC
  0
SECTION
  2
CLASSES
  0
CLASS
  1
ACDBDICTIONARYWDFLT
  2
AcDbDictionaryWithDefault
  3
ObjectDBX Classes
 90
        0
280
     0
281
     0
  0
CLASS
  1
VISUALSTYLE
  2
AcDbVisualStyle
  3
ObjectDBX Classes
 90
     4095
280
     0
281
     0
  0
CLASS
  1
MATERIAL
  2
AcDbMaterial
  3
ObjectDBX Classes
 90
     1153
280
     0
281
     0
  0
CLASS
  1
SCALE
  2
AcDbScale
  3
ObjectDBX Classes
 90
     1153
280
     0
281
     0
  0
CLASS
  1
TABLESTYLE
  2
AcDbTableStyle
  3
ObjectDBX Classes
 90
     4095
280
     0
281
     0
  0
CLASS
  1
MLEADERSTYLE
  2
AcDbMLeaderStyle
  3
ACDB_MLEADERSTYLE_CLASS
 90
     4095
280
     0
281
     0
  0
CLASS
  1
SUN
  2
AcDbSun
  3
SCENEOE
 90
     1153
280
     0
281
     0
  0
CLASS
  1
ACDBPLACEHOLDER
  2
AcDbPlaceHolder
  3
ObjectDBX Classes
 90
        0
280
     0
281
     0
  0
CLASS
  1
LAYOUT
  2
AcDbLayout
  3
ObjectDBX Classes
 90
        0
280
     0
281
     0
  0
ENDSEC
  0
SECTION
  2
TABLES
  0
TABLE
  2
VPORT
  5
8
330
0
100
AcDbSymbolTable
 70
     1
  0
VPORT
  5
29
330
8
100
AcDbSymbolTableRecord
100
AcDbViewportTableRecord
  2
*Active
 70
     0
 10
0.0
 20
0.0
 11
1.0
 21
1.0
 12
145.0384073696
 22
11.0956765566
 13
0.0
 23
0.0
 14
10.0
 24
10.0
 15
10.0
 25
10.0
 16
0.0
 26
0.0
 36
1.0
 17
0.0
 27
0.0
 37
0.0
 40
37.4364484357
 41
7.9003244961
 42
50.0
 43
0.0
 44
0.0
 50
0.0
 51
0.0
 71
     0
 72
   100
 73
     1
 74
     3
 75
     0
 76
     0
 77
     0
 78
     0
281
     0
 65
     1
110
0.0
120
0.0
130
0.0
111
1.0
121
0.0
131
0.0
112
0.0
122
1.0
132
0.0
 79
     0
146
0.0
  0
ENDTAB
  0
TABLE
  2
LTYPE
  5
5
330
0
100
AcDbSymbolTable
 70
     6
  0
LTYPE
  5
14
330
5
100
AcDbSymbolTableRecord
100
AcDbLinetypeTableRecord
  2
ByBlock
 70
     0
  3

 72
    65
 73
     0
 40
0.0
  0
LTYPE
  5
15
330
5
100
AcDbSymbolTableRecord
100
AcDbLinetypeTableRecord
  2
ByLayer
 70
     0
  3

 72
    65
 73
     0
 40
0.0
  0
LTYPE
  5
16
330
5
100
AcDbSymbolTableRecord
100
AcDbLinetypeTableRecord
  2
Continuous
 70
     0
  3
Solid line
 72
    65
 73
     0
 40
0.0
  0
LTYPE
  5
5E
330
5
100
AcDbSymbolTableRecord
100
AcDbLinetypeTableRecord
  2
HIDDEN
 70
     0
  3
Hidden __ __ __ __ __ __ __ __ __ __ __ __ __ __
 72
    65
 73
     2
 40
1.905
 49
1.27
 74
     0
 49
-0.635
 74
     0
  0
LTYPE
  5
5F
330
5
100
AcDbSymbolTableRecord
100
AcDbLinetypeTableRecord
  2
PHANTOM
 70
     0
  3
Phantom ______  __  __  ______  __  __  ______
 72
    65
 73
     6
 40
12.7
 49
6.35
 74
     0
 49
-1.27
 74
     0
 49
1.27
 74
     0
 49
-1.27
 74
     0
 49
1.27
 74
     0
 49
-1.27
 74
     0
  0
LTYPE
  5
60
330
5
100
AcDbSymbolTableRecord
100
AcDbLinetypeTableRecord
  2
CENTER
 70
     0
  3
Center ____ _ ____ _ ____ _ ____ _ ____ _ ____
 72
    65
 73
     4
 40
10.16
 49
6.35
 74
     0
 49
-1.27
 74
     0
 49
1.27
 74
     0
 49
-1.27
 74
     0
  0
LTYPE
  5
61
330
5
100
AcDbSymbolTableRecord
100
AcDbLinetypeTableRecord
  2
CENTERX2
 70
     0
  3
Center (2x) ________  __  ________  __  _____
 72
    65
 73
     4
 40
20.32
 49
12.7
 74
     0
 49
-2.54
 74
     0
 49
2.54
 74
     0
 49
-2.54
 74
     0
  0
LTYPE
  5
62
330
5
100
AcDbSymbolTableRecord
100
AcDbLinetypeTableRecord
  2
DOT2
 70
     0
  3
Dot (.5x) ........................................
 72
    65
 73
     2
 40
0.635
 49
0.0
 74
     0
 49
-0.635
 74
     0
  0
ENDTAB
  0
TABLE
  2
LAYER
  5
2
330
0
100
AcDbSymbolTable
 70
     1
  0
LAYER
  5
10
330
2
100
AcDbSymbolTableRecord
100
AcDbLayerTableRecord
  2
0
 70
     0
 62
     7
  6
Continuous
370
    -3
390
F
  0
ENDTAB
  0
TABLE
  2
STYLE
  5
3
330
0
100
AcDbSymbolTable
 70
     1
  0
STYLE
  5
11
330
3
100
AcDbSymbolTableRecord
100
AcDbTextStyleTableRecord
  2
Standard
 70
     0
 40
0.0
 41
1.0
 50
0.0
 71
     0
 42
3.5
  3
txt
  4

  0
ENDTAB
  0
TABLE
  2
VIEW
  5
6
330
0
100
AcDbSymbolTable
 70
     0
  0
ENDTAB
  0
TABLE
  2
UCS
  5
7
330
0
100
AcDbSymbolTable
 70
     0
  0
ENDTAB
  0
TABLE
  2
APPID
  5
9
330
0
100
AcDbSymbolTable
 70
     1
  0
APPID
  5
12
330
9
100
AcDbSymbolTableRecord
100
AcDbRegAppTableRecord
  2
ACAD
 70
     0
  0
ENDTAB
  0
TABLE
  2
DIMSTYLE
  5
A
330
0
100
AcDbSymbolTable
 70
     1
100
AcDbDimStyleTable
  0
DIMSTYLE
105
27
330
A
100
AcDbSymbolTableRecord
100
AcDbDimStyleTableRecord
  2
ISO-25
 70
     0
 41
2.5
 42
0.625
 43
3.75
 44
1.25
 73
     0
 74
     0
 77
     1
 78
     8
140
2.5
141
2.5
143
0.0393700787
147
0.625
171
     3
172
     1
178
     0
271
     2
272
     2
274
     3
278
    44
283
     0
284
     8
340
11
  0
ENDTAB
  0
TABLE
  2
BLOCK_RECORD
  5
1
330
0
100
AcDbSymbolTable
 70
     1
  0
BLOCK_RECORD
  5
1F
330
1
100
AcDbSymbolTableRecord
100
AcDbBlockTableRecord
  2
*Model_Space
340
22
  0
BLOCK_RECORD
  5
1B
330
1
100
AcDbSymbolTableRecord
100
AcDbBlockTableRecord
  2
*Paper_Space
340
1E
  0
BLOCK_RECORD
  5
23
330
1
100
AcDbSymbolTableRecord
100
AcDbBlockTableRecord
  2
*Paper_Space0
340
26
  0
ENDTAB
  0
ENDSEC
  0
SECTION
  2
BLOCKS
  0
BLOCK
  5
20
330
1F
100
AcDbEntity
  8
0
100
AcDbBlockBegin
  2
*Model_Space
 70
     0
 10
0.0
 20
0.0
 30
0.0
  3
*Model_Space
  1

  0
ENDBLK
  5
21
330
1F
100
AcDbEntity
  8
0
100
AcDbBlockEnd
  0
BLOCK
  5
1C
330
1B
100
AcDbEntity
 67
     1
  8
0
100
AcDbBlockBegin
  2
*Paper_Space
 70
     0
 10
0.0
 20
0.0
 30
0.0
  3
*Paper_Space
  1

  0
ENDBLK
  5
1D
330
1B
100
AcDbEntity
 67
     1
  8
0
100
AcDbBlockEnd
  0
BLOCK
  5
24
330
23
100
AcDbEntity
  8
0
100
AcDbBlockBegin
  2
*Paper_Space0
 70
     0
 10
0.0
 20
0.0
 30
0.0
  3
*Paper_Space0
  1

  0
ENDBLK
  5
25
330
23
100
AcDbEntity
  8
0
100
AcDbBlockEnd
  0
ENDSEC
  0
SECTION
  2
ENTITIES
  0
LINE
  5
63
330
1F
100
AcDbEntity
  8
0
  6
Continuous
 62
     7
370
    25
100
AcDbLine
 10
6.0
 20
-1.5
 30
0.0
 11
6.0
 21
1.5
 31
0.0
  0
LINE
  5
64
330
1F
100
AcDbEntity
  8
0
  6
Continuous
 62
     7
370
    25
100
AcDbLine
 10
6.0
 20
1.5
 30
0.0
 11
0.0579707892
 21
1.5
 31
0.0
  0
SPLINE
  5
65
330
1F
100
AcDbEntity
  8
0
  6
Continuous
 62
     7
370
    25
100
AcDbSpline
210
0.0
220
0.0
230
1.0
 70
     8
 71
     3
 72
    62
 73
    58
 74
     0
 42
0.00000001
 43
0.00000001
 40
0.3457277306909408
 40
0.3457277306909408
 40
0.3457277306909408
 40
0.3457277306909408
 40
0.3527281265573253
 40
0.3597265299089524
 40
0.3667226529495156
 40
0.373716640589367
 40
0.3807091245687564
 40
0.3877013031193982
 40
0.3946949565238785
 40
0.3982327468262368
 40
0.4017698807213189
 40
0.40530666012073
 40
0.4088434294337355
 40
0.4123804805225959
 40
0.4159180898712059
 40
0.4194565187582372
 40
0.4230504652842332
 40
0.4266432861701271
 40
0.4302354436959361
 40
0.4338275213625999
 40
0.4374202497318044
 40
0.4410144677566665
 40
0.4446111512552798
 40
0.4464589746309877
 40
0.44830639550445
 40
0.4501530935372274
 40
0.4519988320722327
 40
0.4538435153410115
 40
0.4556871487201003
 40
0.4575299365527412
 40
0.4594592035052854
 40
0.461388073141516
 40
0.4633177278030214
 40
0.4652491903698891
 40
0.4671833071493179
 40
0.4691207966211818
 40
0.4710622326243477
 40
0.4730996509619494
 40
0.4751377241146548
 40
0.4771734821655115
 40
0.4792040582511605
 40
0.4812268209351711
 40
0.4832393562634654
 40
0.4852395468467565
 40
0.4863340013639518
 40
0.4874278304943991
 40
0.4885251611435989
 40
0.4896303918779168
 40
0.4907481155622647
 40
0.4918831824343069
 40
0.493040704612337
 40
0.4950708697202645
 40
0.4971306398994368
 40
0.4991755527493369
 40
0.5011710500686243
 40
0.5030977949186292
 40
0.5043494957629565
 40
0.5043494957629565
 40
0.5043494957629565
 40
0.5043494957629565
 10
90.00000000000685
 20
29.3715000000002
 30
0.0
 10
88.5663659561917
 20
29.33076569074737
 30
0.0
 10
85.6998825015712
 20
29.23597042176704
 30
0.0
 10
81.40260046031837
 20
29.0470387436513
 30
0.0
 10
77.10930644685752
 20
28.80432134682443
 30
0.0
 10
72.8210637772739
 20
28.50081852707869
 30
0.0
 10
68.53892700965268
 20
28.12955010072097
 30
0.0
 10
64.26397060791194
 20
27.68349797012368
 30
0.0
 10
60.70072494144892
 20
27.24262933584546
 30
0.0
 10
57.8460508781485
 20
26.84420089332293
 30
0.0
 10
55.69600887144845
 20
26.52158437546851
 30
0.0
 10
53.54955104818658
 20
26.17725987175945
 30
0.0
 10
51.406656011629
 20
25.811520290972
 30
0.0
 10
49.26729638816544
 20
25.42468901531046
 30
0.0
 10
47.13144955495049
 20
25.01709563413992
 30
0.0
 10
44.98816778078505
 20
24.58682239910744
 30
0.0
 10
42.83795256568936
 20
24.13409247760679
 30
0.0
 10
40.68178226987435
 20
23.65675434019102
 30
0.0
 10
38.53150713741331
 20
23.15517460270074
 30
0.0
 10
36.38754345909121
 20
22.62731295004094
 30
0.0
 10
34.25029489901599
 20
22.07117159427237
 30
0.0
 10
32.1201772355281
 20
21.48472047151455
 30
0.0
 10
30.34231098647982
 20
20.96637381141766
 30
0.0
 10
28.91318563540069
 20
20.53107208643138
 30
0.0
 10
27.83029348595486
 20
20.18969387202628
 30
0.0
 10
26.75175276873499
 20
19.83615574791024
 30
0.0
 10
25.67844548248622
 20
19.46873644183259
 30
0.0
 10
24.61124193412061
 20
19.08577547588665
 30
0.0
 10
23.55102534074632
 20
18.68555603704191
 30
0.0
 10
22.48212796656102
 20
18.25975776792984
 30
0.0
 10
21.4059447911299
 20
17.80568210049196
 30
0.0
 10
20.32224380525698
 20
17.32422694958117
 30
0.0
 10
19.24647352113502
 20
16.82426122830109
 30
0.0
 10
18.17742368903685
 20
16.30763325103459
 30
0.0
 10
17.11388386068977
 20
15.77617680077365
 30
0.0
 10
16.05464088789495
 20
15.23174020534215
 30
0.0
 10
14.98189306224756
 20
14.66742020718286
 30
0.0
 10
13.89537572411994
 20
14.08508828918448
 30
0.0
 10
12.79774218142473
 20
13.48269772882913
 30
0.0
 10
11.70872327694759
 20
12.86769337279206
 30
0.0
 10
10.63134483511623
 20
12.23868995579728
 30
0.0
 10
9.568675427028667
 20
11.59423906782945
 30
0.0
 10
8.523747774592877
 20
10.93294169214304
 30
0.0
 10
7.651831338590101
 20
10.35433701942747
 30
0.0
 10
6.945828802276517
 20
9.866518398276506
 30
0.0
 10
6.398473149276382
 20
9.47463602716752
 30
0.0
 10
5.857312266137477
 20
9.070519469769152
 30
0.0
 10
5.32176865787866
 20
8.650974817336413
 30
0.0
 10
4.791298807688019
 20
8.212769266072268
 30
0.0
 10
4.265307131805477
 20
7.752719757294041
 30
0.0
 10
3.616502890985854
 20
7.149744726313452
 30
0.0
 10
2.860391451967329
 20
6.384594601715265
 30
0.0
 10
2.03615250290575
 20
5.434278407932887
 30
0.0
 10
1.295853961379732
 20
4.425197870392897
 30
0.0
 10
0.6772261186492256
 20
3.367530395883187
 30
0.0
 10
0.267279264966332
 20
2.385612446643327
 30
0.0
 10
0.1048004592812419
 20
1.752517932736037
 30
0.0
 10
0.0579707926567785
 20
1.499999999345292
 30
0.0
  0
LINE
  5
66
330
1F
100
AcDbEntity
  8
0
  6
Continuous
 62
     7
370
    25
100
AcDbLine
 10
90.0
 20
29.3715000002
 30
0.0
 11
90.0
 21
12.0
 31
0.0
  0
LINE
  5
67
330
1F
100
AcDbEntity
  8
0
  6
Continuous
 62
     7
370
    25
100
AcDbLine
 10
90.0
 20
12.0
 30
0.0
 11
93.0
 21
12.0
 31
0.0
  0
LINE
  5
68
330
1F
100
AcDbEntity
  8
0
  6
Continuous
 62
     7
370
    25
100
AcDbLine
 10
93.0
 20
12.0
 30
0.0
 11
93.0
 21
29.4468767702
 31
0.0
  0
SPLINE
  5
69
330
1F
100
AcDbEntity
  8
0
  6
Continuous
 62
     7
370
    25
100
AcDbSpline
210
0.0
220
0.0
230
1.0
 70
     8
 71
     3
 72
    59
 73
    55
 74
     0
 42
0.00000001
 43
0.00000001
 40
0.0166428120657682
 40
0.0166428120657682
 40
0.0166428120657682
 40
0.0166428120657682
 40
0.0178618217403754
 40
0.021434398942417
 40
0.0250080524601305
 40
0.0285772048172877
 40
0.0321452758404524
 40
0.0357127212130167
 40
0.039279956507033
 40
0.0428473965264311
 40
0.0464154774938028
 40
0.049984603254901
 40
0.0571027325089913
 40
0.0642187254676672
 40
0.0713334863405766
 40
0.0784478617112305
 40
0.0855627263325463
 40
0.0926789865624291
 40
0.0997974718119839
 40
0.1068846056266082
 40
0.1139696679069982
 40
0.121053403252575
 40
0.1281365838195677
 40
0.1352199957125802
 40
0.1423045109679282
 40
0.1493909953887174
 40
0.1564404253059446
 40
0.163487866953286
 40
0.170534216933666
 40
0.1775803121184409
 40
0.1846269234599508
 40
0.1916748094865814
 40
0.198724668304105
 40
0.2057545563372475
 40
0.212782198142964
 40
0.219808520722013
 40
0.226834439046939
 40
0.2338609742746448
 40
0.2408891443354395
 40
0.2479200276158414
 40
0.2549206893244471
 40
0.2619196836617469
 40
0.2689172520740427
 40
0.275913853268074
 40
0.2829100494954421
 40
0.289906663999055
 40
0.2969046659298185
 40
0.3038789234516674
 40
0.3108515041840402
 40
0.3178236112040805
 40
0.3247963180502358
 40
0.3317706524809853
 40
0.3387475180510274
 40
0.3408451754445557
 40
0.3408451754445557
 40
0.3408451754445557
 40
0.3408451754445557
 10
290.018843949949
 20
2.613471890888037
 30
0.0
 10
289.7751017262572
 20
2.667897061839659
 30
0.0
 10
288.8169969277922
 20
2.881728108932381
 30
0.0
 10
287.1441576357548
 20
3.254310691339082
 30
0.0
 10
285.0009712577772
 20
3.729870759757862
 30
0.0
 10
282.8582609528963
 20
4.203310701788933
 30
0.0
 10
280.7163449789572
 20
4.674446077027231
 30
0.0
 10
278.5743339523
 20
5.143315887822859
 30
0.0
 10
276.4319577893604
 20
5.609907620860002
 30
0.0
 10
274.2889216932977
 20
6.074074582161151
 30
0.0
 10
272.1449667087359
 20
6.535822052978149
 30
0.0
 10
269.2891033852022
 20
7.147157193150819
 30
0.0
 10
265.7209983548229
 20
7.903781457826797
 30
0.0
 10
261.4399412505272
 20
8.799983511223042
 30
0.0
 10
257.1572723327262
 20
9.684659086292811
 30
0.0
 10
252.8724599838285
 20
10.55773797789976
 30
0.0
 10
248.5849570848326
 20
11.41906869112657
 30
0.0
 10
244.2942434139115
 20
12.26860700919961
 30
0.0
 10
240.0067020554738
 20
13.10482454160136
 30
0.0
 10
235.723060421812
 20
13.92755833492902
 30
0.0
 10
231.4437496715243
 20
14.73498461620057
 30
0.0
 10
227.1622803511517
 20
15.5264544703442
 30
0.0
 10
222.8779122758823
 20
16.30019349365032
 30
0.0
 10
218.5899131600409
 20
17.05448873567901
 30
0.0
 10
214.2975516228142
 20
17.78759796680017
 30
0.0
 10
210.0081625351314
 20
18.49640768479999
 30
0.0
 10
205.7222571086124
 20
19.17926055799789
 30
0.0
 10
201.44102416217
 20
19.83878017239914
 30
0.0
 10
197.1575083457537
 20
20.47867418205873
 30
0.0
 10
192.8716605128813
 20
21.10155199311344
 30
0.0
 10
188.5834299838039
 20
21.71003225482404
 30
0.0
 10
184.2927642458881
 20
22.30670382049044
 30
0.0
 10
180.0042054219676
 20
22.89356034780409
 30
0.0
 10
175.7188488356903
 20
23.47318693471076
 30
0.0
 10
171.4370545025274
 20
24.04311942889196
 30
0.0
 10
167.1545271887647
 20
24.60127685559458
 30
0.0
 10
162.870394383369
 20
25.14520016276255
 30
0.0
 10
158.5837871202084
 20
25.67240266097787
 30
0.0
 10
154.2938320132789
 20
26.1803909372473
 30
0.0
 10
150.0065993102863
 20
26.66584401387147
 30
0.0
 10
145.7226379877478
 20
27.12650393886371
 30
0.0
 10
141.4425339349342
 20
27.55842104329534
 30
0.0
 10
137.1601188398624
 20
27.9580415155453
 30
0.0
 10
132.8750259038278
 20
28.32125572454778
 30
0.0
 10
128.5868684695458
 20
28.64387896646532
 30
0.0
 10
124.2952808935455
 20
28.92180244042157
 30
0.0
 10
120.0052739946016
 20
29.15055504841069
 30
0.0
 10
115.7176973631256
 20
29.32637434851197
 30
0.0
 10
111.4336574969908
 20
29.45142106028022
 30
0.0
 10
107.1487923491968
 20
29.52753762559078
 30
0.0
 10
102.8629965291822
 20
29.55651951658969
 30
0.0
 10
98.57616590442494
 20
29.54008657006157
 30
0.0
 10
95.28842317808632
 20
29.49407047894468
 30
0.0
 10
93.42965696637481
 20
29.45624242716051
 30
0.0
 10
93.00000000000001
 20
29.44687677015146
 30
0.0
  0
LINE
  5
6A
330
1F
100
AcDbEntity
  8
0
  6
Continuous
 62
     7
370
    25
100
AcDbLine
 10
290.0188439499
 20
-0.3865281091
 30
0.0
 11
290.0188439499
 21
2.6134718909
 31
0.0
  0
SPLINE
  5
6B
330
1F
100
AcDbEntity
  8
0
  6
Continuous
 62
     7
370
    25
100
AcDbSpline
210
0.0
220
0.0
230
1.0
 70
     8
 71
     3
 72
   114
 73
   110
 74
     0
 42
0.00000001
 43
0.00000001
 40
0.5093338892916146
 40
0.5093338892916146
 40
0.5093338892916146
 40
0.5093338892916146
 40
0.5097282004999814
 40
0.5112528658720074
 40
0.5128044972608308
 40
0.5143663038839742
 40
0.5159191705210444
 40
0.5174443356359625
 40
0.5183682881935089
 40
0.5192825603411056
 40
0.5201924511948054
 40
0.5211013503055246
 40
0.5220109623146826
 40
0.5229217578962303
 40
0.5238332076655572
 40
0.5255922506041194
 40
0.5273491405253767
 40
0.5291044540575948
 40
0.5308586620126391
 40
0.532612285207124
 40
0.5343657552105208
 40
0.5361195107887454
 40
0.5378630262140909
 40
0.5396065725274131
 40
0.5413503576998413
 40
0.5430944887182452
 40
0.5448389858889685
 40
0.5465838425733426
 40
0.548329007479367
 40
0.5500731070899135
 40
0.5518165481626469
 40
0.5535595527099839
 40
0.5553023399618048
 40
0.5570451426008348
 40
0.5587881749170471
 40
0.5605316494057925
 40
0.564019049001512
 40
0.5675057954763811
 40
0.5709921460586375
 40
0.5744783580856395
 40
0.5779647244105912
 40
0.5814515789631395
 40
0.5849392333696294
 40
0.5884290832083845
 40
0.5919180017675353
 40
0.5954064142090594
 40
0.5988947208697677
 40
0.6023832634654781
 40
0.6058724307920657
 40
0.6093625427027228
 40
0.6163418534925822
 40
0.6233191147278073
 40
0.6302951484633225
 40
0.6372708017871972
 40
0.6442468576259257
 40
0.6512241237725648
 40
0.6582034038358521
 40
0.6651831766300843
 40
0.6721609035171223
 40
0.6791374306837048
 40
0.6861135675674932
 40
0.693090108706222
 40
0.7000679103890811
 40
0.7070477469644185
 40
0.7140281092269444
 40
0.7210063866512506
 40
0.7279834389330058
 40
0.734960063400898
 40
0.7419371048286462
 40
0.7489154130388108
 40
0.7558957896211623
 40
0.7628744463449952
 40
0.7698510144809763
 40
0.7768263514295703
 40
0.7838012698554334
 40
0.7907765994142227
 40
0.7977531549711728
 40
0.8047317706656644
 40
0.8117086211809471
 40
0.818683382720291
 40
0.8256569225941442
 40
0.832630053469438
 40
0.8396036148321326
 40
0.8465784598028164
 40
0.8535553912042486
 40
0.8605317466275011
 40
0.8675060152468127
 40
0.8744790022181189
 40
0.8814515636732033
 40
0.8884244962959702
 40
0.8953986519332822
 40
0.9023748748597012
 40
0.9093502392013977
 40
0.9163235257056234
 40
0.9232956130189773
 40
0.930267289068766
 40
0.9372394327941438
 40
0.9442128231942802
 40
0.9511883055890896
 40
0.9546760137820849
 40
0.9581626707273645
 40
0.9616487024627983
 40
0.9651345025358427
 40
0.9686204996933417
 40
0.9721071245723523
 40
0.9755947638760387
 40
0.9790822327767507
 40
0.9825686656600634
 40
0.9837605596076748
 40
0.9837605596076748
 40
0.9837605596076748
 40
0.9837605596076748
 10
0.4144601055828719
 20
-1.500000000070049
 30
0.0
 10
0.4465668979535756
 20
-1.574215522542338
 30
0.0
 10
0.6098751925476794
 20
-1.932343228109547
 30
0.0
 10
0.9634829432382908
 20
-2.551701544279471
 30
0.0
 10
1.537591197893372
 20
-3.311896754845437
 30
0.0
 10
2.202558511221495
 20
-4.00189325421008
 30
0.0
 10
2.940048651645687
 20
-4.605119238531423
 30
0.0
 10
3.635503653975672
 20
-5.044038146797308
 30
0.0
 10
4.255465146804212
 20
-5.346392452151483
 30
0.0
 10
4.779001374064091
 20
-5.554779470159064
 30
0.0
 10
5.311801015051104
 20
-5.728018142535197
 30
0.0
 10
5.852057612688636
 20
-5.87230437191675
 30
0.0
 10
6.397982053482197
 20
-5.993827673879907
 30
0.0
 10
6.947810773149659
 20
-6.098725310997357
 30
0.0
 10
7.671046421521461
 20
-6.222392055610994
 30
0.0
 10
8.566910217486656
 20
-6.364693733832862
 30
0.0
 10
9.636007068473406
 20
-6.517689059572895
 30
0.0
 10
10.70629984731943
 20
-6.654455407395988
 30
0.0
 10
11.77781992595818
 20
-6.775405522629499
 30
0.0
 10
12.85059014032723
 20
-6.88090595043705
 30
0.0
 10
13.92463979615102
 20
-6.971343890702585
 30
0.0
 10
14.9977549120113
 20
-7.046999890735391
 30
0.0
 10
16.06974927533759
 20
-7.10822602245075
 30
0.0
 10
17.14034651921891
 20
-7.156640862701598
 30
0.0
 10
18.21150406301495
 20
-7.194087010014972
 30
0.0
 10
19.28313688211819
 20
-7.222209945288227
 30
0.0
 10
20.35515785661623
 20
-7.242728389580044
 30
0.0
 10
21.42748535426759
 20
-7.257267216280658
 30
0.0
 10
22.49977813153737
 20
-7.267566766691902
 30
0.0
 10
23.57180263476183
 20
-7.275172610113932
 30
0.0
 10
24.64339924105007
 20
-7.280295209487486
 30
0.0
 10
25.71473493857415
 20
-7.283223433488962
 30
0.0
 10
26.78594309582877
 20
-7.284330228510205
 30
0.0
 10
27.85715728200145
 20
-7.283875593219521
 30
0.0
 10
28.92851090426576
 20
-7.282186925004848
 30
0.0
 10
30.35728592926352
 20
-7.278757893494862
 30
0.0
 10
32.14329909803491
 20
-7.272740710435405
 30
0.0
 10
34.28636471014803
 20
-7.26132005720277
 30
0.0
 10
36.42915212207851
 20
-7.244443745945029
 30
0.0
 10
38.57179860862968
 20
-7.220767128772354
 30
0.0
 10
40.71444633773956
 20
-7.18906371332008
 30
0.0
 10
42.85723156825626
 20
-7.147962514209408
 30
0.0
 10
45.00050388039019
 20
-7.096248627977398
 30
0.0
 10
47.14387340581168
 20
-7.032459893339349
 30
0.0
 10
49.28707357333868
 20
-6.958684824565282
 30
0.0
 10
51.42967460077485
 20
-6.877174477908273
 30
0.0
 10
53.5719811191176
 20
-6.790185205461729
 30
0.0
 10
55.71430521810581
 20
-6.699906203615454
 30
0.0
 10
57.85695478753368
 20
-6.608581766828897
 30
0.0
 10
60.71419522415076
 20
-6.488403190284655
 30
0.0
 10
64.2857734547399
 20
-6.346531187654018
 30
0.0
 10
68.57136991804154
 20
-6.18684120120725
 30
0.0
 10
72.85651014486578
 20
-6.035266288161332
 30
0.0
 10
77.14159536367096
 20
-5.889258659786919
 30
0.0
 10
81.42703526156559
 20
-5.74629400687381
 30
0.0
 10
85.71323315362812
 20
-5.603771072673979
 30
0.0
 10
90.00012743076925
 20
-5.459273420375277
 30
0.0
 10
94.28695681216372
 20
-5.31011173315083
 30
0.0
 10
98.57306831255
 20
-5.156608456527494
 30
0.0
 10
102.8582917274304
 20
-4.999174752776343
 30
0.0
 10
107.1431425855132
 20
-4.838259225426065
 30
0.0
 10
111.4281354283087
 20
-4.674199496828652
 30
0.0
 10
115.713781478102
 20
-4.507413674077305
 30
0.0
 10
120.0001203868692
 20
-4.338317256777137
 30
0.0
 10
124.2864800658413
 20
-4.167288006400359
 30
0.0
 10
128.5722286380914
 20
-3.99525605368122
 30
0.0
 10
132.8572154218778
 20
-3.823338877157995
 30
0.0
 10
137.1419911835482
 20
-3.652479617205934
 30
0.0
 10
141.4271090999206
 20
-3.483752258678597
 30
0.0
 10
145.7131165604065
 20
-3.318100800618051
 30
0.0
 10
149.9996160378594
 20
-3.156654675382733
 30
0.0
 10
154.2859503303749
 20
-3.000371491126146
 30
0.0
 10
158.5714450601218
 20
-2.849488339533774
 30
0.0
 10
162.856371474488
 20
-2.704334062913804
 30
0.0
 10
167.1412412496092
 20
-2.565121119123422
 30
0.0
 10
171.4265582018498
 20
-2.432117734257818
 30
0.0
 10
175.712829449892
 20
-2.305599668216284
 30
0.0
 10
179.9996068422575
 20
-2.185841442787872
 30
0.0
 10
184.2862066986237
 20
-2.073102650753592
 30
0.0
 10
188.5719197641906
 20
-1.966380364677507
 30
0.0
 10
192.8569911251273
 20
-1.864631136401507
 30
0.0
 10
197.1419072941239
 20
-1.76679267453624
 30
0.0
 10
201.4271560579546
 20
-1.671860370600366
 30
0.0
 10
205.7132244169994
 20
-1.578794243635615
 30
0.0
 10
209.9998827186261
 20
-1.486534814622563
 30
0.0
 10
214.2864187994116
 20
-1.39408431144384
 30
0.0
 10
218.5721695398808
 20
-1.30270024678322
 30
0.0
 10
222.8571908094544
 20
-1.213584328656467
 30
0.0
 10
227.1420106125294
 20
-1.127998817258473
 30
0.0
 10
231.4271623012727
 20
-1.047147080598993
 30
0.0
 10
235.7131733497015
 20
-0.9722721660076183
 30
0.0
 10
239.9998032877437
 20
-0.9045933615422566
 30
0.0
 10
244.2863801430188
 20
-0.8453718062935808
 30
0.0
 10
248.5721949629136
 20
-0.7927837204937799
 30
0.0
 10
252.857310415962
 20
-0.7450595996137714
 30
0.0
 10
257.1422237449621
 20
-0.7003459786626469
 30
0.0
 10
261.4274164202191
 20
-0.6568478692419207
 30
0.0
 10
265.7133827530382
 20
-0.6127388878557876
 30
0.0
 10
269.2854922527918
 20
-0.573959187827047
 30
0.0
 10
272.1432752944611
 20
-0.5408276195160207
 30
0.0
 10
274.2862012279724
 20
-0.5156530662679867
 30
0.0
 10
276.4287404074178
 20
-0.4908336544644262
 30
0.0
 10
278.5711572247554
 20
-0.4671371144309054
 30
0.0
 10
280.713714460074
 20
-0.4451940854106171
 30
0.0
 10
282.8566733215912
 20
-0.4257955651520233
 30
0.0
 10
284.9999607042169
 20
-0.4095906697980856
 30
0.0
 10
287.1432350614471
 20
-0.3973430192961783
 30
0.0
 10
288.8161886073015
 20
-0.3903966653530308
 30
0.0
 10
289.774655798571
 20
-0.3872726577387285
 30
0.0
 10
290.0188439499491
 20
-0.3865281091119739
 30
0.0
  0
LINE
  5
6C
330
1F
100
AcDbEntity
  8
0
  6
Continuous
 62
     7
370
    25
100
AcDbLine
 10
0.4144601057
 20
-1.5
 30
0.0
 11
6.0
 21
-1.5
 31
0.0
  0
ENDSEC
  0
SECTION
  2
OBJECTS
  0
DICTIONARY
  5
C
330
0
100
AcDbDictionary
281
     1
  3
ACAD_GROUP
350
D
  3
ACAD_LAYOUT
350
1A
  3
ACAD_MLINESTYLE
350
17
  3
ACAD_PLOTSETTINGS
350
19
  3
ACAD_PLOTSTYLENAME
350
E
  3
ACAD_SCALELIST
350
47
  3
DWGPROPS
350
6D
  0
DICTIONARY
  5
D
102
{ACAD_REACTORS
330
C
102
}
330
C
100
AcDbDictionary
281
     1
  0
DICTIONARY
  5
1A
102
{ACAD_REACTORS
330
C
102
}
330
C
100
AcDbDictionary
281
     1
  3
Layout1
350
1E
  3
Layout2
350
26
  3
Model
350
22
  0
DICTIONARY
  5
17
102
{ACAD_REACTORS
330
C
102
}
330
C
100
AcDbDictionary
281
     1
  3
Standard
350
18
  0
DICTIONARY
  5
19
102
{ACAD_REACTORS
330
C
102
}
330
C
100
AcDbDictionary
281
     1
  0
ACDBDICTIONARYWDFLT
  5
E
102
{ACAD_REACTORS
330
C
102
}
330
C
100
AcDbDictionary
281
     1
  3
Normal
350
F
100
AcDbDictionaryWithDefault
340
F
  0
DICTIONARY
  5
47
102
{ACAD_REACTORS
330
C
102
}
330
C
100
AcDbDictionary
281
     1
  3
A0
350
48
  3
A1
350
49
  3
A2
350
4A
  3
A3
350
4B
  3
A4
350
4C
  3
A5
350
4D
  3
A6
350
4E
  3
A7
350
4F
  3
A8
350
50
  3
A9
350
51
  3
B0
350
52
  3
B1
350
53
  3
B2
350
54
  3
B3
350
55
  3
B4
350
56
  3
B5
350
57
  3
B6
350
58
  0
XRECORD
  5
6D
102
{ACAD_REACTORS
330
C
102
}
330
C
100
AcDbXrecord
280
     1
  1
DWGPROPS COOKIE
  2

  3

  4

  6

  7

  8
Steven
  9

300
=
301
=
302
=
303
=
304
=
305
=
306
=
307
=
308
=
309
=
 40
0.0
 41
2460738.730369144
 42
2460738.730394132
  1

 90
        0
  0
LAYOUT
  5
1E
102
{ACAD_REACTORS
330
1A
102
}
330
1A
100
AcDbPlotSettings
  1

  2
none_device
  4

  6

 40
0.0
 41
0.0
 42
0.0
 43
0.0
 44
0.0
 45
0.0
 46
0.0
 47
0.0
 48
0.0
 49
0.0
140
0.0
141
0.0
142
1.0
143
1.0
 70
   688
 72
     1
 73
     0
 74
     5
  7

 75
    16
147
1.0
148
0.0
149
0.0
100
AcDbLayout
  1
Layout1
 70
     1
 71
     1
 10
0.0
 20
0.0
 11
420.0
 21
297.0
 12
0.0
 22
0.0
 32
0.0
 14
1.0000000000E+20
 24
1.0000000000E+20
 34
1.0000000000E+20
 15
-1.0000000000E+20
 25
-1.0000000000E+20
 35
-1.0000000000E+20
146
0.0
 13
0.0
 23
0.0
 33
0.0
 16
1.0
 26
0.0
 36
0.0
 17
0.0
 27
1.0
 37
0.0
 76
     0
330
1B
  0
LAYOUT
  5
26
102
{ACAD_REACTORS
330
1A
102
}
330
1A
100
AcDbPlotSettings
  1

  2
none_device
  4

  6

 40
0.0
 41
0.0
 42
0.0
 43
0.0
 44
0.0
 45
0.0
 46
0.0
 47
0.0
 48
0.0
 49
0.0
140
0.0
141
0.0
142
1.0
143
1.0
 70
   688
 72
     1
 73
     0
 74
     5
  7

 75
    16
147
1.0
148
0.0
149
0.0
100
AcDbLayout
  1
Layout2
 70
     1
 71
     2
 10
0.0
 20
0.0
 11
0.0
 21
0.0
 12
0.0
 22
0.0
 32
0.0
 14
0.0
 24
0.0
 34
0.0
 15
0.0
 25
0.0
 35
0.0
146
0.0
 13
0.0
 23
0.0
 33
0.0
 16
1.0
 26
0.0
 36
0.0
 17
0.0
 27
1.0
 37
0.0
 76
     0
330
23
  0
LAYOUT
  5
22
102
{ACAD_REACTORS
330
1A
102
}
330
1A
100
AcDbPlotSettings
  1

  2
none_device
  4
ANSI_A_(11.00_x_8.50_Inches)
  6

 40
6.35
 41
19.05
 42
6.35000508
 43
19.05000254
 44
279.4
 45
215.9
 46
-5.0083033395
 47
78.3153613058
 48
0.0
 49
0.0
140
0.0
141
0.0
142
0.0375567913
143
1.0
 70
  1696
 72
     0
 73
     0
 74
     0
  7

 75
     0
147
0.0179189148
148
-1300.4909072572
149
0.0
100
AcDbLayout
  1
Model
 70
     1
 71
     0
 10
0.0
 20
0.0
 11
420.0
 21
297.0
 12
0.0
 22
0.0
 32
0.0
 14
0.0579707892
 24
-7.255523657
 34
0.0
 15
290.0188439499
 25
29.4468767702
 35
0.0
146
0.0
 13
0.0
 23
0.0
 33
0.0
 16
1.0
 26
0.0
 36
0.0
 17
0.0
 27
1.0
 37
0.0
 76
     0
330
1F
331
29
  0
MLINESTYLE
  5
18
102
{ACAD_REACTORS
330
17
102
}
330
17
100
AcDbMlineStyle
  2
Standard
 70
     0
  3

 62
   256
 51
90.0
 52
90.0
 71
     2
 49
0.5
 62
   256
  6
BYLAYER
 49
-0.5
 62
   256
  6
BYLAYER
  0
ACDBPLACEHOLDER
  5
F
102
{ACAD_REACTORS
330
E
102
}
330
E
  0
SCALE
  5
48
102
{ACAD_REACTORS
330
47
102
}
330
47
100
AcDbScale
 70
     0
300
1:1
140
1.0
141
1.0
290
     1
  0
SCALE
  5
49
102
{ACAD_REACTORS
330
47
102
}
330
47
100
AcDbScale
 70
     0
300
1:2
140
1.0
141
2.0
290
     0
  0
SCALE
  5
4A
102
{ACAD_REACTORS
330
47
102
}
330
47
100
AcDbScale
 70
     0
300
1:4
140
1.0
141
4.0
290
     0
  0
SCALE
  5
4B
102
{ACAD_REACTORS
330
47
102
}
330
47
100
AcDbScale
 70
     0
300
1:5
140
1.0
141
5.0
290
     0
  0
SCALE
  5
4C
102
{ACAD_REACTORS
330
47
102
}
330
47
100
AcDbScale
 70
     0
300
1:8
140
1.0
141
8.0
290
     0
  0
SCALE
  5
4D
102
{ACAD_REACTORS
330
47
102
}
330
47
100
AcDbScale
 70
     0
300
1:10
140
1.0
141
10.0
290
     0
  0
SCALE
  5
4E
102
{ACAD_REACTORS
330
47
102
}
330
47
100
AcDbScale
 70
     0
300
1:16
140
1.0
141
16.0
290
     0
  0
SCALE
  5
4F
102
{ACAD_REACTORS
330
47
102
}
330
47
100
AcDbScale
 70
     0
300
1:20
140
1.0
141
20.0
290
     0
  0
SCALE
  5
50
102
{ACAD_REACTORS
330
47
102
}
330
47
100
AcDbScale
 70
     0
300
1:30
140
1.0
141
30.0
290
     0
  0
SCALE
  5
51
102
{ACAD_REACTORS
330
47
102
}
330
47
100
AcDbScale
 70
     0
300
1:40
140
1.0
141
40.0
290
     0
  0
SCALE
  5
52
102
{ACAD_REACTORS
330
47
102
}
330
47
100
AcDbScale
 70
     0
300
1:50
140
1.0
141
50.0
290
     0
  0
SCALE
  5
53
102
{ACAD_REACTORS
330
47
102
}
330
47
100
AcDbScale
 70
     0
300
1:100
140
1.0
141
100.0
290
     0
  0
SCALE
  5
54
102
{ACAD_REACTORS
330
47
102
}
330
47
100
AcDbScale
 70
     0
300
2:1
140
2.0
141
1.0
290
     0
  0
SCALE
  5
55
102
{ACAD_REACTORS
330
47
102
}
330
47
100
AcDbScale
 70
     0
300
4:1
140
4.0
141
1.0
290
     0
  0
SCALE
  5
56
102
{ACAD_REACTORS
330
47
102
}
330
47
100
AcDbScale
 70
     0
300
8:1
140
8.0
141
1.0
290
     0
  0
SCALE
  5
57
102
{ACAD_REACTORS
330
47
102
}
330
47
100
AcDbScale
 70
     0
300
10:1
140
10.0
141
1.0
290
     0
  0
SCALE
  5
58
102
{ACAD_REACTORS
330
47
102
}
330
47
100
AcDbScale
 70
     0
300
100:1
140
100.0
141
1.0
290
     0
  0
ENDSEC
  0
EOF
